<svg xmlns="http://www.w3.org/2000/svg" class="icon icon-tabler icon-tabler-truck" width="30" height="60" viewBox="0 0 200 400">
                    <rect x="30" y="30" width="140" height="320" rx="20" fill="rgba(0, 0, 0, 0.2)" />
                    <rect x="40" y="50" width="120" height="200" rx="10" fill="#87CEEB" stroke="black" stroke-width="2" />
                    <line x1="40" y1="100" x2="160" y2="100" stroke="black" stroke-width="1" />
                    <line x1="40" y1="200" x2="160" y2="200" stroke="black" stroke-width="1" />
                    <line x1="40" y1="150" x2="160" y2="150" stroke="black" stroke-width="2" stroke-dasharray="5,5" />
                    <rect x="50" y="250" width="100" height="60" rx="8" fill="#d3d3d3" stroke="black" stroke-width="2" />
                    <rect x="60" y="260" width="35" height="30" rx="5" fill="#87CEEB" stroke="black" stroke-width="1" />
                    <rect x="105" y="260" width="35" height="30" rx="5" fill="#87CEEB" stroke="black" stroke-width="1" />
                    <line x1="65" y1="265" x2="75" y2="275" stroke="white" stroke-width="2" opacity="0.6" />
                    <line x1="110" y1="265" x2="120" y2="275" stroke="white" stroke-width="2" opacity="0.6" />
                    <line x1="50" y1="250" x2="40" y2="240" stroke="black" stroke-width="2" />
                    <line x1="150" y1="250" x2="160" y2="240" stroke="black" stroke-width="2" />
                    <rect x="35" y="235" width="10" height="10" rx="2" fill="#d3d3d3" />
                    <rect x="155" y="235" width="10" height="10" rx="2" fill="#d3d3d3" />
                    <rect x="30" y="70" width="10" height="40" rx="5" fill="black" />
                    <rect x="160" y="70" width="10" height="40" rx="5" fill="black" />
                    <rect x="30" y="210" width="10" height="40" rx="5" fill="black" />
                    <rect x="160" y="210" width="10" height="40" rx="5" fill="black" />
                    <rect x="30" y="270" width="10" height="40" rx="5" fill="black" />
                    <rect x="160" y="270" width="10" height="40" rx="5" fill="black" />
                    <circle cx="60" cy="40" r="5" fill="yellow" />
                    <circle cx="140" cy="40" r="5" fill="yellow" />
                    <circle cx="60" cy="320" r="5" fill="red" />
                    <circle cx="140" cy="320" r="5" fill="red" />
                </svg>