<svg class="svg-icon" style="width: 1em;height: 1em;vertical-align: middle;fill: currentColor;overflow: hidden;" viewBox="0 0 1024 1024" version="1.1" xmlns="http://www.w3.org/2000/svg"><path d="M256.56 79.124c38.72-7.832 77.428-15.756 116.172-23.468 26.4-5.252 52.864-10.192 79.296-15.3 38.776-7.496 77.5-15.24 116.332-22.412 14.56-2.688 24.372 5.88 31.22 17.18 13.82 22.832 26.848 46.148 40.124 69.308 24.12 42.052 48.544 83.932 72.136 126.276 17.264 30.972 37.824 60.28 50.284 93.7 4.716 12.64 9.376 26.156 4.972 40.32-4.696 0.524-9.076-1.4-10.6-5.304-5.392-13.816-15.128-8.168-24.128-6.064-2.684 0.624-5.236 1.82-7.844 2.752a13.156 13.156 0 0 1-0.116-2.1l-6.456-14.656c8.176-6.044 18.344-3.056 27.228-5.992 2.888-0.952 7.196-0.416 6.408-5.028-0.752-4.372-0.912-9.164-4.02-12.788-0.948-1.104-3.14-1.068-3.436 0.532-1.664 8.868-9.288 7.188-14.916 8.316-31.544 6.324-63.148 12.3-94.728 18.444-40.856 7.956-81.716 15.896-122.548 23.964-28.112 5.556-56.184 11.312-84.276 16.98-5.032-1.432-6.952-5.952-8.572-9.964-10.692-26.46-27.036-49.832-40.764-74.6-19.032-34.336-38.392-68.48-59.672-101.592-20.076-31.236-36.9-64.552-55.432-96.788-3.952-6.864-7.184-13.632-6.664-21.716z" fill="#E4E4E4" /><path d="M770.88 453.616c7.28 17.144 18.836 31.82 28.432 47.552 15.52 25.456 26.776 51.78 30.248 81.576 3.204 27.556 7.692 54.96 11.496 82.444 0.868 6.256 1.268 12.58 1.888 18.872 0.352 29.864-1.008 59.772 2.316 89.56l-0.016 15.944a4.08 4.08 0 0 0-1.128 0.704c-0.26 6.416-5.012 9.308-9.66 12.28-4.612 1.508-9.216 3.044-13.836 4.528-18.916 6.084-39.212 5.72-58 12.408-0.508-10.344-3.484-19.428-12.84-25.268-0.764-0.644-1.532-1.28-2.288-1.92-7.672-7.308-17.064-9.12-27.208-8.552l-2.304 1.744a5.124 5.124 0 0 1-2.02 0.028c-1.572-5.728-3.304-11.416-4.684-17.188-2.532-10.648-9.304-14.492-19.972-14.428-10.44 0.06-21.192-0.104-31.236-2.54-6.996-1.692-16.996 1.576-20.628-8.696l126.656-24.936c-0.48 0.928-0.988 1.852-1.428 2.8-1.252 2.688-6.46 3.08-4.884 7.12 1.4 3.572 5.404 2.284 8.344 2.972 16.008 3.768 31.808-0.228 47.56-1.752 12.448-1.208 13.12-3.576 10.54-16.52l-0.876-3.044-0.852-7.872c5.92-7.904 3.796-16.864 2.676-25.344-3.02-22.9-6.584-45.728-10.132-68.548-1.332-8.58-1.824-17.548-8.356-24.392 0.544-21.88-8.312-31.016-27.248-27.52-19.272 3.56-38.444 7.64-57.676 11.42a219306.24 219306.24 0 0 1-196.88 38.664c-6.128 1.2-11.164 0.04-13.428-6.828-4.792-14.512-13.524-26.972-20.984-40.104-11.088-19.512-21.896-39.188-32.824-58.792 4.088-3.148 9.144-3.112 13.852-4.036 71.124-13.968 142.176-28.336 213.452-41.464 22.808-4.196 45.14-13.376 69.116-9.312 2.516 1.652 5.28 2.256 8.252 2.012 1.34 0.436 2.676 0.88 4.016 1.32 0.364 1.948 0.472 4.016 2.544 5.108z" fill="#48C2FE" /><path d="M242.232 377.66c-10-31.656-11.16-64.208-10.42-97.068 0.76-33.804 0.8-67.624 0.968-101.436 0.064-12.996-0.228-25.868-2.46-38.892-2.556-14.892-1.176-30.144 4.912-44.48 2.4 0.216 5.06-0.324 6.616 2.304-0.556 4.648-3.188 8.652 0 14.032 13.972 23.588 27.256 47.584 40.712 71.48 41.832 74.264 87.912 146.164 124.404 223.404 0.02 3.484 0.048 6.964 0.072 10.44-0.084 1.816 0.276 3.424 2.036 4.38l0.064 88.756c-0.032 28.14-0.084 56.28-0.064 84.424 0.004 3.056-0.884 6.428 2.116 8.816l0.012 46.54c-4.48 3.176 0.032 9.204-3.964 12.532-4.92-2.736-6.8-7.848-9.352-12.328-13.34-23.452-26.4-47.072-39.784-70.5-38.568-67.496-77.24-134.94-115.868-202.404z" fill="#828283" /><path d="M235.856 457.692c2.048-18.944 0.708-37.952 1.052-56.932 0.108-6.024 0.188-11.988 3.62-17.28 1.388 2.832 2.62 5.74 4.18 8.46 22.476 39.248 45.016 78.468 67.492 117.716a95549.216 95549.216 0 0 1 84.128 147.14c5.188 9.088 11.468 17.66 12.792 28.596 3.832 31.536 2.016 63.12 1.2 94.708-4.448-0.12-5.212-3.988-6.968-6.852-3.748-6.124-7.512-12.24-11.268-18.36-0.788-8.164 0.336-16.484-2.028-24.512 0.456-5.924-2.14-10.976-4.888-15.848-12.024-21.34-24.584-42.388-36.14-63.972-5.564-10.392-12.088-16.58-24.464-12.904l-0.476-2.088-4.28-8.516c1.284-13.244-2.196-25.7-6.232-38.068-0.692-5.436 0.548-11.604-5.704-14.916 0.572-6.88-0.684-13.384-4.052-19.436-3.824-16.128-9.64-31.46-18.36-45.6-15.392-24.948-16.544-25.416-43.424-18.772-8.464-9.636-3-21.92-6.18-32.564z" fill="#247DD0" /><path d="M881.224 898.016c1.728 34.636 0.236 28.968-24.844 33.912a120779.936 120779.936 0 0 1-332.6 64.964c-3.96 0.776-8.568 3.64-12.292-0.988-0.344-12.156-0.692-24.304-1.044-36.46 9.336-1.116 18.732-1.88 28-3.416 26.468-4.372 53.052-8.268 79.268-13.856 20.696-4.416 41.956-5.904 62.236-12.344l6.336-0.08c2.32-0.048 4.788 0.372 6.36-2.032l6.336-0.084c2.324-0.044 4.796 0.372 6.364-2.04l6.336-0.076c2.324-0.048 4.796 0.372 6.36-2.04l4.224-0.064c2.928-0.272 6.216 0.936 8.476-2.064 6.176-2.176 12.576-2.452 19.032-2.192 2.724-0.02 4.144-1.432 4.4-4.108 2.752 0.008 5.5 0.008 8.248 0.008 3.308 3.136 3.86 0.46 4.448-2.116 2.04 0.008 4.084 0.012 6.128 0.012 3.76 2.832 6.996 3.492 8.672-2.136l4.024 0.036c2.164 2.536 4.304 2.552 6.42-0.068l6.332-0.084c3.512-0.116 7.084 0.16 10.524-0.412 24.1-3.992 48.172-8.164 72.256-12.272z" fill="#676767" /><path d="M256.56 79.124c-0.52 8.084 2.712 14.848 6.66 21.716 18.536 32.236 35.356 65.556 55.432 96.788 21.28 33.112 40.644 67.256 59.672 101.592 13.728 24.768 30.076 48.14 40.764 74.6 1.62 4.012 3.54 8.532 8.58 9.964l2.52 8.412c0.284 1.552 0.304 3.608 2.556 3.14 0.76-0.16 1.168-2 1.736-3.072l4.176-0.184c3.412 3.608 5.4 2.464 6.412-1.92l4.168-0.172c3.416 3.584 5.416 2.464 6.416-1.94l4.164-0.164c3.412 3.56 5.416 2.448 6.424-1.94l4.16-0.16c3.412 3.536 5.412 2.424 6.428-1.948l4.156-0.148c3.708 2.968 6.908 3.828 8.492-2.044l4.204-0.176c3.42 3.648 5.4 2.5 6.388-1.928l4.192-0.164c3.424 3.616 5.412 2.472 6.4-1.936l4.184-0.168c3.42 3.608 5.404 2.452 6.404-1.936l4.18-0.168c6.824 3.508 12.444 2 16.992-4.048l4.172-0.164c3.412 3.564 5.412 2.448 6.416-1.94l4.16-0.172c3.416 3.572 5.412 2.44 6.424-1.94l4.16-0.14c7.3 2.964 13.792 2.172 19.084-4.14l4.188-0.188c3.42 3.636 5.404 2.492 6.396-1.928l4.188-0.168c3.416 3.616 5.404 2.468 6.404-1.932l4.18-0.172c3.416 3.6 5.364 2.324 6.416-1.928a3290.8 3290.8 0 0 0 6.276-0.26c3.16 3.388 3.796 0.916 4.308-1.852l4.168-0.152c3.412 3.544 5.412 2.428 6.42-1.948l4.156-0.176c3.712 3.02 6.904 3.88 8.488-2.016l4.204-0.176c3.424 3.656 5.408 2.52 6.392-1.924 1.4-0.06 2.792-0.124 4.192-0.18 3.428 3.648 5.408 2.5 6.396-1.928l4.192-0.152c3.428 3.592 5.412 2.452 6.392-1.956l4.188-0.16c3.428 3.596 5.412 2.444 6.404-1.952l4.184-0.156c3.424 3.58 5.416 2.472 6.4-1.952l12.592 0.008 6.456 14.656c-37.744 7.676-75.436 15.572-113.236 22.984-52.904 10.376-105.928 20.152-158.792 30.74-12.312 2.464-23.456 5.02-30.124-9.368-0.552-1.184-2.98-1.5-4.532-2.22-0.716-1.352-1.428-2.712-2.14-4.068 0.06-3.068-0.164-5.964-4.028-6.652l-6.664-16.584c-6.388-15.388-13.196-30.52-25.248-42.552a9.28 9.28 0 0 0-0.164-1.88c-2.248-6.464-3.28-13.668-10.46-17.124a11.72 11.72 0 0 0-0.144-1.908c-0.568-3.956-1.448-7.688-6.156-8.728a8.988 8.988 0 0 0-0.152-1.884c-0.588-3.94-1.516-7.644-6.144-8.748l-0.332-3.868c-2.232-5.86-3.972-12.056-10.308-15.12l-2.296-6.096c-0.58-3.952-1.428-7.712-6.176-8.708a10.756 10.756 0 0 0-0.144-1.896c-1.516-5.116-2.184-10.776-8.308-12.932a9.068 9.068 0 0 0-0.152-1.888c-1.524-5.112-2.168-10.788-8.328-12.916l-2.296-6.1c-0.548-3.968-1.464-7.676-6.148-8.736a8.932 8.932 0 0 0-0.168-1.872c-1.52-5.112-2.168-10.792-8.32-12.92a9.76 9.76 0 0 0-0.136-1.9c-1.524-5.108-2.228-10.748-8.292-12.952l-2.332-6.068c-2.86-9.096-6.752-17.556-14.616-23.548a8.924 8.924 0 0 0-0.16-1.872c-3.8-10.332-7.612-20.66-16.776-27.748a10.18 10.18 0 0 0-0.156-1.876c-1.512-5.12-2.196-10.772-8.3-12.944l-2.12-4.084c0.656-5.608-4.188-9.556-4.504-14.868 1.584-5.368 6.572-4.756 10.496-6.004z" fill="#CFCFCF" /><path d="M390.056 730.38c2.364 8.028 1.244 16.348 2.028 24.504l0.012 41.424c-0.332 4.884-0.752 9.74-4.952 13.176-16.548-0.684-22.1-13.6-28.648-25.56-5.22-9.532-10.532-19.028-16.196-28.296-11.004-18.016-21.612-36.128-23.048-57.92 5.872-6.108 1.776-11.284-3.364-12.8-14.208-4.192-21.976-14.824-29.608-26.008 3.732-3.012 2.372-7.264 1.94-10.788-0.8-6.536-2.568-12.948-3.992-19.4-4.952-22.408-9.928-44.8-14.892-67.2 3.568-3.208 3.744 0.096 4.532 2.336 6.26 17.808 12.908 35.492 18.712 53.448 7.044 21.804 15.02 43.18 25.756 65.8 3.112-10.804 1.308-19.78 1.7-28.596 1.256-4.464-3.06-10.94 4.716-13.052 8.02 8.508 12.72 19.196 18.004 29.292 10.32 19.74 24.808 37.304 31.088 59.152 0.952 3.296 3.536 2.836 5.964 2.432 3.436-0.568 6.836-1.288 10.248-1.944z" fill="#5D5546" /><path d="M286.284 658.9c7.632 11.184 15.4 21.816 29.608 26.008 5.14 1.516 9.236 6.692 3.364 12.8-4.052-2.052-8.212-1.028-12.348-0.408-22.996 3.464-39.28-6.3-50.544-25.76-6.852-11.836-11.428-24.572-14.348-37.916 4.056-0.8 4.216 2.412 5.324 4.92 1.66 3.752 3.104 9.004 8.068 8.264 5.304-0.788 4.628-6.384 4.624-10.348-0.016-11.24-1.672-22.356-6.16-32.668-1.752-4.032-2.392-11.496-8.452-10.344-6.952 1.316-3.388 8.6-4.228 13.324-0.304 1.704-0.168 3.488-0.228 5.236l-3.1 0.244c-3.56-15.22-2.452-30.804-3.584-46.212 6.148-7.64 7.236-18.22 14.612-25.14 5.524 1.432 7.084 6.468 8.908 10.732 7.6 17.74 13.28 36.108 18.26 54.776 4.616 17.308 3.704 35.616 10.224 52.492zM406.92 908.752c-5.628-6.292-4.292-14.26-4.836-21.62-0.728-9.772 0.692-19.676-1.46-29.404 5.824-7.572 5.928-18.072 12.828-25.088 5.208-1.196 6.476 2.756 8.216 6.212 13.812 27.452 20.872 56.844 25.892 86.964 1.384 8.316-0.96 17.792 5.88 24.9 4.088 9.608 11.992 15.952 19.612 22.456 3.792 3.244 7.132 6.572 8.004 11.704-13.752 8.724-27.336 5.6-39.668-2.248-19.916-12.68-27.716-32.888-31.204-55.204 4.516 0.548 4.168 5.168 6.392 7.636 1.44 1.604 2.924 3.172 5.316 2.844 2.532-0.348 3.472-2.324 3.668-4.492 1.484-16.544-1.444-32.26-9.228-46.972-0.964-1.828-2.732-3.448-5.124-3.096-2.948 0.432-4.032 2.784-4.104 5.368-0.2 6.668-0.14 13.356-0.184 20.04z" fill="#2F2F2F" /><path d="M410.32 780.1c0.82-31.584 2.632-63.172-1.196-94.708-1.328-10.936-7.604-19.508-12.792-28.596a96988.344 96988.344 0 0 0-84.128-147.14c-22.476-39.248-45.016-78.468-67.492-117.716-1.56-2.72-2.792-5.624-4.18-8.46 0.564-1.948 1.136-3.888 1.704-5.824 38.628 67.468 77.3 134.912 115.86 202.412 13.384 23.428 26.444 47.048 39.784 70.5 2.552 4.48 4.432 9.592 9.352 12.332 2.036 4.352 5.94 5.792 10.26 6.576l-0.044-0.044c2.976 3.356 6.764 4.3 11.06 3.728 4.096 5.44 8.384 10.768 10.1 17.572l0.224 83.004-25.384 6.084-3.08 0.34-0.048-0.06z" fill="#27669D" /><path d="M722.256 923.416l-4.224 0.064c-3.496-3.612-5.48-2.508-6.36 2.04l-6.336 0.076c-3.5-3.604-5.48-2.504-6.364 2.04l-6.336 0.084c-3.492-3.62-5.48-2.52-6.36 2.032l-6.336 0.08c-4.328-4.18-9.7-1.484-14.556-2.188-3.428-0.5-7.916 1.344-8.764-4.324 18.62-7.38 38.976-6.668 57.976-12.484 15.144-4.64 31.596-4.076 46.184-11.184 29.804-5.836 59.648-11.532 89.408-17.616 9.048-1.848 19.132-0.54 26.604-7.84 1.788 2.412 3.584 4.82 5.376 7.232 0.144 4.128 1.604 8.312-0.492 12.356-26.448 4.256-52.9 8.548-79.36 12.76-2.532 0.408-3.576 1.856-3.88 4.164-2.108 0.032-4.228 0.06-6.332 0.084-2.172-2.876-4.312-2.852-6.42 0.072l-4.028-0.036c-3.04 0.112-6.424-1.176-8.668 2.136-2.044 0-4.088-0.004-6.128-0.012-1.884-0.128-3.54 0.208-4.448 2.116-2.752 0-5.5 0-8.252-0.008-2.88-0.14-4.3 1.264-4.396 4.108-6.456-0.26-12.856 0.016-19.032 2.192-3.732-3.056-6.96-4.02-8.476 2.056z" fill="#828283" /><path d="M453.44 950.712c-6.84-7.104-4.496-16.584-5.88-24.9-5.02-30.12-12.08-59.512-25.892-86.964-1.74-3.452-3.008-7.408-8.216-6.22-16.108-7.008-17.08-6.664-23.46 8.236-4.844-4.428-4.264-9.996-3.484-15.716 0.704-5.184 2.536-10.364 0.644-15.664 4.2-3.436 4.62-8.292 4.948-13.176l4.416-4.224c4.176 0.024 8.352 0.048 12.532 0.064 4.964 10.772 15.976 17.66 19.036 29.66-7.724 3.008-3.12 7.668-1.48 11.78 15.012 37.66 25.256 76.392 26.836 117.124z" fill="#676767" /><path d="M286.284 658.9c-6.52-16.876-5.608-35.184-10.224-52.488-4.98-18.668-10.66-37.04-18.26-54.776-1.828-4.26-3.384-9.296-8.912-10.736-1.008-0.284-2.132-0.36-3-0.872-18.776-11.072-18.768-11.084-21.932 10.292-8.112-12.856-1.78-25.044 1.724-37.36 3.952-0.828 4.664-4.936 7.244-7.212 5.624-4.952 11.604-5.432 16.94-0.588 16.808 15.248 24.844 35.644 32.04 56.436-3.108-0.256-5.204-1.748-6.076-4.852-3.348-11.94-10.828-21.772-16.692-32.416-2.628-4.772-5.796-9.132-11.944-10.94-0.584 7.996 4.364 13.052 7.596 18.48 5.668 9.524 6.588 21.32 14.548 29.648 4.968 22.4 9.944 44.792 14.896 67.2 1.424 6.448 3.192 12.864 3.992 19.4 0.432 3.516 1.792 7.772-1.94 10.784z" fill="#7A7B7B" /><path d="M882.172 881.42c-1.788-2.412-3.584-4.82-5.38-7.232-0.036-11.56 0.42-23.148-0.212-34.68-1.172-21.408-8.004-34.804-31.6-30.18l-0.864-19.064a3.928 3.928 0 0 1 1.128-0.696c6.172-1.84 7.656 4.752 12.12 7.732 0.436-9.72-2.604-17.416-6.084-24.892-3.076-6.596-4.072 0.416-6.024 1.208-3.324-29.784-1.964-59.696-2.316-89.56 4.624 10.052 1.576 20.644 1.856 30.948 0.216 7.94 1.86 15.012 5.26 22.16 18.032 37.876 28.596 77.872 33.048 119.524 0.884 8.284 5.824 16.74-0.932 24.732z" fill="#CFCFCF" /><path d="M453.44 950.712c-1.58-40.732-11.824-79.46-26.836-117.12-1.64-4.112-6.244-8.772 1.48-11.784 3.34 8.532 9.94 15.684 10.624 25.324 5.764 23.42 13.924 46.16 20.328 69.416 4.42 16.06 11.224 32.268 18.668 47.792 4.064 8.468 8.204 9.38 15.404 5.548 0.768 4.024-0.188 8.432 2.688 11.98-5.548-2.104-9.52 3.512-14.744 3.008-0.872-5.132-4.212-8.46-8.004-11.704-7.62-6.508-15.52-12.852-19.608-22.46z" fill="#5D5546" /><path d="M281.904 561.596c-7.192-20.796-15.232-41.192-32.036-56.44-5.336-4.84-11.316-4.364-16.94 0.588-2.58 2.276-3.292 6.384-7.244 7.212-0.136-2.904-1.704-5.924 0.728-8.604 5.192-0.732 4.668-8.168 10.108-8.612 11.556-1.184 19.384 3.752 26.328 13.116 9.9 13.352 16.412 28.268 23.476 43.024 2.76 5.768 3.428 12.916 10.284 16.084l0.364 4c2.608 14.416 4.928 16.788 16.616 17.016 4.032 12.368 7.512 24.824 6.232 38.068l-12.308-0.036c-6.288-17.932-12.216-36.012-21.348-52.792l-4.26-12.624z" fill="#929292" /><path d="M768.34 448.512l-4.016-1.32c0.668-9.752 0.52-19.332-6.004-27.52-0.136-5.216-5.096-8.972-4.372-14.448 0.004-4.86 0.012-9.724 0.008-14.588-0.012-19.2-0.012-19.2-18.632-17.248l-6.848-10.76-3.948-6.516c2.608-0.936 5.16-2.128 7.844-2.752 9-2.104 18.74-7.752 24.128 6.064 1.528 3.908 5.908 5.828 10.6 5.304 0.052 18.52-2.468 37.208 3.512 55.348-3.904 9.224-0.236 19.056-2.272 28.436z" fill="#CFCFCF" /><path d="M495.8 981.864c-2.88-3.548-1.92-7.956-2.688-11.98 0.352-7.94-1.464-15.616-2.736-23.376-1.976-6.136 1.436-13.152-3.052-18.884-0.524-10.628 7.764-10.024 14.512-11.396 0.128 6.912 0.164 13.82 0.404 20.732 0.168 4.832 0.176 9.88 6.148 11.74l2.056 10.744c0.352 12.156 0.7 24.304 1.044 36.46-9.38-0.044-8.82-11.188-15.688-14.04z" fill="#2F2F2F" /><path d="M406.92 908.752c0.04-6.684-0.02-13.372 0.172-20.048 0.076-2.584 1.156-4.932 4.104-5.368 2.392-0.352 4.164 1.268 5.124 3.096 7.784 14.712 10.712 30.428 9.228 46.972-0.196 2.168-1.136 4.144-3.668 4.492-2.392 0.328-3.872-1.24-5.316-2.844-2.22-2.468-1.876-7.088-6.392-7.636a42.948 42.948 0 0 1-3.252-18.664zM240.964 612.012c0.064-1.748-0.076-3.532 0.228-5.236 0.84-4.724-2.724-12.008 4.228-13.324 6.064-1.152 6.7 6.312 8.452 10.344 4.488 10.312 6.144 21.428 6.16 32.668 0.004 3.964 0.68 9.56-4.624 10.348-4.964 0.74-6.408-4.512-8.068-8.264-1.108-2.512-1.268-5.724-5.324-4.92l-0.196-10.44c0.356-3.776 0.628-7.548-0.856-11.176z" fill="#A7A7A7" /><path d="M223.956 550.32c3.164-21.376 3.156-21.364 21.932-10.292 0.868 0.512 1.992 0.584 3 0.872-7.376 6.924-8.46 17.504-14.608 25.144-4.552-4.512-8.6-9.356-10.324-15.724z" fill="#676767" /><path d="M236.512 495.748c-5.436 0.444-4.916 7.88-10.108 8.612-0.024-7.652 0.476-15.344-0.204-22.932-0.876-9.792 1.748-17.72 9.652-23.728 3.18 10.64-2.28 22.924 6.184 32.556-1.84 1.824-3.684 3.656-5.524 5.492z" fill="#2F2F2F" /><path d="M389.992 840.864c6.38-14.9 7.352-15.244 23.46-8.236-6.896 7.028-7 17.528-12.824 25.096-4.648-4.924-8.672-10.248-10.636-16.86z" fill="#5D5546" /><path d="M798.44 910.704c0.304-2.308 1.348-3.756 3.88-4.164 26.46-4.216 52.912-8.504 79.36-12.76 0.68 1.492 0.868 2.944-0.456 4.24-24.084 4.108-48.156 8.28-72.256 12.276-3.44 0.568-7.016 0.288-10.528 0.408z" fill="#7A7B7B" /><path d="M768.34 448.512c2.036-9.38-1.632-19.212 2.272-28.436l0.264 33.54c-2.068-1.092-2.176-3.16-2.536-5.104zM246.068 85.112c0.316 5.316 5.16 9.26 4.5 14.872l-4.588-1.848-0.04 0.004-4.16-10.996c0.856-1.892 2.756-1.568 4.288-2.032z" fill="#A7A7A7" /><path d="M241.78 87.144l4.16 10.992-4.096-0.044c-1.556-2.628-4.216-2.092-6.616-2.308 0.568-4.104 3.372-6.516 6.552-8.64z" fill="#929292" /><path d="M240.964 612.012c1.484 3.628 1.216 7.4 0.86 11.172-5.164-2.248-3.444-6.996-3.964-10.928l3.104-0.244z" fill="#5D5546" /><path d="M677.796 345.528l-4.196 0.148c-2.34-0.048-4.784-0.448-6.392 1.932l-4.192 0.18c-2.34-0.052-4.78-0.452-6.392 1.924-1.404 0.06-2.804 0.12-4.204 0.172-2.948 0.18-6.216-0.984-8.488 2.02l-4.16 0.176c-2.368-0.096-4.828-0.504-6.416 1.948l-4.168 0.152c-1.748-0.104-3.32 0.196-4.308 1.852a3290.8 3290.8 0 0 1-6.276 0.26c-2.36-0.088-4.808-0.484-6.416 1.928l-4.18 0.172c-2.352-0.076-4.796-0.468-6.404 1.932l-4.188 0.168c-2.344-0.064-4.784-0.456-6.396 1.928l-4.188 0.184c-6.708-0.196-12.996 1.516-19.084 4.144l-4.16 0.136c-2.36-0.08-4.828-0.5-6.424 1.944l-4.16 0.168c-2.364-0.092-4.82-0.492-6.416 1.944l-4.172 0.164c-5.78 0.844-11.732 1.016-16.992 4.048l-4.18 0.168c-2.352-0.076-4.8-0.476-6.404 1.936l-4.184 0.168c-2.344-0.06-4.8-0.468-6.4 1.94l-4.192 0.164c-2.336-0.048-4.788-0.456-6.388 1.928l-4.204 0.176c-2.956 0.164-6.232-1-8.492 2.044l-4.156 0.144c-2.368-0.092-4.832-0.508-6.428 1.948l-4.16 0.156c-2.364-0.088-4.824-0.5-6.424 1.94l-4.168 0.164c-2.36-0.084-4.816-0.488-6.416 1.94l-4.168 0.172c-2.352-0.08-4.804-0.488-6.412 1.924l-4.176 0.184-4.292-0.068-2.52-8.412c28.084-5.664 56.156-11.42 84.268-16.976 40.832-8.072 81.692-16.008 122.548-23.964 31.58-6.148 63.184-12.12 94.728-18.444 5.628-1.124 13.252 0.556 14.916-8.316 0.296-1.596 2.488-1.636 3.436-0.532 3.108 3.624 3.264 8.416 4.02 12.788 0.788 4.612-3.52 4.076-6.408 5.028-8.884 2.936-19.052-0.052-27.228 5.992l-12.592-0.008c-2.352-0.064-4.808-0.468-6.4 1.956l-4.184 0.156c-2.356-0.072-4.804-0.46-6.404 1.952-1.392 0.052-2.792 0.1-4.188 0.16-2.332-0.06-4.78-0.44-6.376 1.968z" fill="#FEFEFE" /><path d="M724.528 356.112c1.316 2.172 2.628 4.344 3.952 6.516-36.172 8.08-72.668 14.472-109.064 21.428-54.928 10.5-109.72 21.744-164.548 32.772-11.124 2.24-22.116 4.956-29.656-7.276-1.14-1.852-3.324-2.52-5.544-2.596a165.972 165.972 0 0 1-0.144-1.988l-1.8-8.824c1.552 0.724 3.98 1.04 4.532 2.224 6.668 14.388 17.812 11.832 30.124 9.368 52.864-10.588 105.892-20.364 158.792-30.74 37.796-7.412 75.492-15.304 113.236-22.984a13.16 13.16 0 0 0 0.12 2.1z" fill="#A7A7A7" /><path d="M808.684 583.152c6.536 6.844 7.028 15.812 8.36 24.392 3.552 22.82 7.112 45.648 10.132 68.548 1.12 8.48 3.248 17.44-2.668 25.336-17.552 12.268-39.076 10.384-58.412 16.296l-126.656 24.936-71.908 13.076c-1.252-0.524-2.476-1.396-3.764-1.512-14.28-1.3-16.86-3.624-19.456-18.016-1.112-6.172-2.364-12.332-3.12-18.552-3.416-28.024-10.976-55.584-9.4-84.164 4.464-4.468 10.532-5.024 16.184-6.136 78.276-15.392 156.588-30.648 234.896-45.9 8.728-1.704 17.448-2.504 25.812 1.696z" fill="#5D5546" /><path d="M419.528 404.968c0.04 0.668 0.088 1.328 0.144 1.988 1.468 8.024 7.388 13.28 11.756 19.584 3.896 5.624 8.736 6.752 14.544 5.632 41.24-7.94 82.46-16.032 123.684-24.048 31.272-6.08 62.572-11.996 93.816-18.212 24-4.776 47.928-9.908 71.892-14.876 8.748 8.496 12.204 20.244 18.584 30.188-0.728 5.48 4.236 9.236 4.372 14.452-4.568 8.168-0.988 17.048-2.248 25.504-23.976-4.064-46.308 5.116-69.116 9.312-71.276 13.124-142.328 27.496-213.452 41.464-4.708 0.924-9.764 0.888-13.852 4.036-3.584 0.428-5.688 3.232-8.316 5.184l-6.324 4.048c-4.252 1.048-4.104 4.5-4.248 7.788-4.012 2.564-0.308 8.088-4.116 10.732-3.52-3.072-2.132-7.212-2.156-10.908-0.132-20.044-0.312-40.092 0.036-60.132 0.156-8.792-2.236-16.592-6.368-24.084-3.876-7.028-7.58-14.172-11.848-20.956-1.944-3.088-3.524-8.624-9.344-4.664-36.5-77.236-82.58-149.136-124.412-223.4-13.456-23.892-26.744-47.892-40.712-71.48-3.184-5.38-0.552-9.384 0-14.032l4.092 0.048h0.04c-0.18 4.98 0.256 9.748 3.096 14.144 22.04 34.136 40.612 70.3 61.564 105.104 30.012 49.836 57.768 101.036 86.928 151.396 3.876 6.688 5.584 15.236 13.368 19.34 0.08 0.664 0.132 1.328 0.156 1.996 0.688 6.16 1.684 12.144 8.44 14.852z" fill="#7A7B7B" /><path d="M760.792 899.648c-14.592 7.108-31.048 6.544-46.192 11.184-19 5.816-39.356 5.104-57.976 12.484-15.184-0.568-29.26 6.596-44.396 6.364 0.076-11.472 0.704-22.984 0.048-34.416-0.508-8.872 2.58-17.756-0.364-26.544 4.62-5.964 1.108-12.968 2.46-19.308 2.704-12.636 0.804-27.604 19.836-31.08 4.836-0.888 16.068 2.588 16.24-9.184 24.116-7.728 49.456-9.348 74.04-14.788 5.704 8.32 12.592 8.276 25.292-0.144 9.356 5.84 12.332 14.924 12.84 25.268-3.568 2.22-0.736 4.492-0.068 6.748-2.792 24.42-2.22 48.92-1.76 73.416z" fill="#4D6B97" /><path d="M567.536 755.736l71.908-13.076c3.632 10.268 13.632 7.004 20.628 8.696 10.044 2.432 20.792 2.596 31.236 2.54 10.668-0.064 17.44 3.78 19.972 14.428 1.38 5.772 3.112 11.46 4.684 17.192-10.96 2.056-21.916 4.1-32.88 6.164-23.308 4.404-46.64 8.72-69.92 13.252-15.892 3.096-30.18 12.372-28.528 31.6 0.332 3.836 0.004 7.736 0.004 11.6 0.008 2.772-0.904 4.796-3.98 5.204-13.472 1.752-26.528 6.164-40.252 6.344-0.72-41.032 2.46-82.324-8.496-122.68-0.98-3.624-0.98-8.08 4.736-8.74 0.52 2.352 1.224 4.684 1.536 7.068 2.46 18.772 10.9 24.668 29.352 20.408zM451.332 505.184c2.628-1.96 4.732-4.764 8.316-5.192 10.924 19.604 21.732 39.28 32.82 58.792 7.46 13.132 16.192 25.592 20.984 40.104 2.264 6.868 7.3 8.028 13.428 6.828a237535.84 237535.84 0 0 0 196.88-38.664c19.232-3.78 38.404-7.864 57.676-11.42 18.936-3.496 27.792 5.64 27.248 27.52-8.368-4.2-17.084-3.404-25.816-1.696a130845.92 130845.92 0 0 0-234.896 45.9c-5.652 1.112-11.72 1.668-16.184 6.136-3.132 1.164-4.128 4.272-5.976 6.6-6.868-10.016-14.804-19.468-20.404-30.148-14.916-28.464-29.384-57.152-45.7-84.872-3.616-6.14-9.568-11.604-8.376-19.888z" fill="#38A2FD" /><path d="M540.408 859.684c13.724-0.18 26.776-4.592 40.248-6.344 3.08-0.408 3.988-2.428 3.98-5.204 0-3.868 0.328-7.764-0.004-11.6-1.652-19.232 12.636-28.504 28.528-31.6 23.28-4.536 46.612-8.852 69.92-13.252 10.96-2.064 21.916-4.108 32.88-6.164 0.676 0.12 1.348 0.112 2.02-0.028 0.764-0.584 1.536-1.16 2.304-1.748 10.144-0.572 19.536 1.244 27.208 8.552-7.692 0.444-15.62-1.796-23.004 2.068-24.584 5.44-49.92 7.064-74.04 14.788-8.828 0.08-17.14 2.368-25.58 4.828-6.224 1.812-11.952 3.208-14.748 9.728-3.816 2.344-5.816 6.064-6.024 10.244-0.392 7.872-0.14 15.772-0.164 23.664-3.8 0.388-7.616 0.724-11.416 1.164-19.076 2.232-37.416 8.916-56.788 9.304 0.036-2.672 0.068-5.356 0.096-8.036 1.536-0.128 3.06-0.248 4.584-0.364z" fill="#27669D" /><path d="M766.096 717.724c19.336-5.916 40.86-4.028 58.412-16.296 0.276 2.632 0.56 5.256 0.848 7.888-4.356 1.296-8.968 2.072-13.012 4.016-5.292 2.548-15.724 1.088-14.664 8.416 0.84 5.808 10.396 1.916 16.012 2.548 8.508 0.956 13.632-2.432 12.536-11.944 2.584 12.944 1.912 15.312-10.54 16.52-15.752 1.524-31.552 5.52-47.56 1.752-2.94-0.688-6.944 0.596-8.344-2.972-1.58-4.044 3.628-4.432 4.884-7.12 0.44-0.956 0.948-1.88 1.428-2.808z" fill="#CFCFCF" /><path d="M762.56 826.232c-0.672-2.252-3.504-4.528 0.064-6.748 18.788-6.688 39.084-6.324 58-12.408 4.62-1.484 9.224-3.02 13.836-4.528l0.004 8.668-71.904 15.016z" fill="#27669D" /><path d="M826.228 712.348c1.096 9.512-4.028 12.904-12.536 11.944-5.616-0.632-15.172 3.26-16.012-2.548-1.06-7.328 9.372-5.872 14.664-8.416 4.044-1.944 8.656-2.72 13.012-4.016 0.288 1.008 0.576 2.028 0.872 3.036zM845.26 773.62c1.952-0.792 2.948-7.804 6.024-1.208 3.476 7.472 6.52 15.172 6.084 24.892-4.464-2.976-5.948-9.572-12.12-7.732 0-5.324 0.008-10.64 0.012-15.952z" fill="#FEFEFE" /><path d="M756.072 445.18c1.26-8.456-2.316-17.34 2.248-25.504 6.524 8.184 6.672 17.764 6.004 27.516-2.972 0.248-5.74-0.36-8.252-2.012z" fill="#929292" /><path d="M724.488 794.36c7.384-3.864 15.312-1.62 23.004-2.068 0.756 0.64 1.524 1.276 2.288 1.92-12.696 8.424-19.588 8.468-25.292 0.148z" fill="#43606D" /><path d="M834.46 811.22l-0.004-8.668c4.648-2.972 9.4-5.864 9.66-12.28l0.864 19.064c-3.132 2.716-6.936 1.668-10.52 1.884z" fill="#247DD0" /><path d="M720.284 783.744l-2.304 1.748 2.304-1.748z" fill="#38A2FD" /><path d="M406.956 407.004c5.82-3.96 7.4 1.572 9.344 4.664 4.272 6.784 7.972 13.928 11.848 20.956 4.132 7.488 6.524 15.292 6.368 24.084-0.348 20.04-0.168 40.088-0.036 60.132 0.024 3.696-1.364 7.836 2.156 10.908l-0.16 14.76c-0.268 0.184-0.792 0.46-0.764 0.532 0.188 0.5 0.488 0.952 0.752 1.42 17.236 23.628 32.408 48.408 42.432 76.06-0.012 2.468-0.48 5.084 2.104 6.744 0.008 0.564 0.004 1.128-0.012 1.696 0.804 8.888-4.288 1.192-6.272 2.236-9.24-27.084-24.416-51.2-38.14-76.032-1.312-2.372-2.632-5.928-5.816-5.088-3.32 0.876-4.364 4.908-4.376 7.852-0.084 17.924 0.576 35.856 0.356 53.776-0.16 13.032 8.884 22.476 12.084 34.136l-0.36 2.584c-3.452-0.3-6.124 0.496-6.44 4.596-5.548 4.448-3.136 10.812-3.936 16.4l-10.652 0.02 0.044 0.044-6.296-19.108-0.012-46.54c0.68-1.552 1.948-3.092 1.956-4.64 0.12-27.452 0.076-54.908 0.108-82.36 0-3.068-0.476-5.652-4.112-6.244l-0.064-88.756c3.2-3.268 0.528-3.796-2.036-4.38l-0.068-10.452z" fill="#676767" /><path d="M409.132 510.584c3.636 0.588 4.116 3.176 4.112 6.244-0.032 27.452 0.012 54.908-0.108 82.36-0.004 1.548-1.276 3.088-1.956 4.64-3-2.388-2.112-5.76-2.116-8.816-0.016-28.148 0.036-56.288 0.068-84.428zM411.196 650.364l6.296 19.108c-4.324-0.78-8.228-2.224-10.26-6.576 3.996-3.328-0.516-9.356 3.964-12.532zM407.028 417.444c2.568 0.584 5.24 1.112 2.036 4.38-1.76-0.956-2.12-2.564-2.036-4.38z" fill="#7A7B7B" /><path d="M390.056 730.38c-3.416 0.656-6.816 1.38-10.244 1.948-2.428 0.404-5.012 0.864-5.964-2.432-6.28-21.848-20.768-39.416-31.088-59.152-5.284-10.096-9.984-20.784-18.008-29.288l-0.184-3.796c12.376-3.676 18.904 2.512 24.464 12.904 11.556 21.584 24.112 42.632 36.14 63.972 2.744 4.868 5.34 9.916 4.884 15.844zM236.512 495.748c1.84-1.832 3.68-3.668 5.524-5.496 26.884-6.64 28.032-6.172 43.424 18.776 8.72 14.14 14.536 29.472 18.356 45.604-11.7-0.584-8.684 6.796-7.22 13.336-6.852-3.164-7.52-10.312-10.284-16.084-7.064-14.752-13.576-29.672-23.476-43.024-6.936-9.36-14.764-14.296-26.324-13.112z" fill="#A7A7A7" /><path d="M324.568 637.656l0.184 3.796c-7.772 2.104-3.452 8.584-4.712 13.048-7.988-0.812-9.384-7.828-11.676-13.32-6.568-15.74-13.224-31.52-18.332-47.752-1.888-6.004-7.872-11.824-3.872-19.204 9.132 16.78 15.064 34.86 21.348 52.792 2.26 9.184 9.364 8.976 16.584 8.552l0.476 2.088z" fill="#7A7B7B" /><path d="M396.512 792.084l-4.416 4.224-0.012-41.424c3.756 6.128 7.52 12.244 11.268 18.368 1.752 2.864 2.52 6.732 6.968 6.852 0 0 0.052 0.056 0.064 0.048-2.556 1.568-6.288 1.66-7.048 5.536-2.308 2.096-5.672 3.064-6.824 6.396z" fill="#2F2F2F" /><path d="M296.6 567.968c-1.464-6.54-4.48-13.92 7.22-13.336 3.372 6.052 4.624 12.556 4.056 19.432-3.84 0.332-7.572 0.136-10.912-2.096l-0.364-4z" fill="#CFCFCF" /><path d="M296.964 571.968c3.34 2.236 7.072 2.428 10.912 2.096 6.248 3.312 5.012 9.48 5.704 14.916-11.684-0.224-14.004-2.592-16.616-17.012z" fill="#A7A7A7" /><path d="M324.088 635.568c-7.22 0.424-14.324 0.632-16.584-8.552l12.308 0.036 4.276 8.516z" fill="#828283" /><path d="M612.232 929.68c15.132 0.236 29.212-6.928 44.396-6.364 0.848 5.668 5.336 3.824 8.764 4.324 4.856 0.704 10.228-1.992 14.556 2.188-20.276 6.44-41.54 7.928-62.236 12.344-26.22 5.584-52.8 9.484-79.268 13.856-9.268 1.536-18.664 2.296-28 3.416l-2.052-10.744 2.808-0.152c2.088 0 4.256 0.364 6.272-0.036 31.6-6.22 63.176-12.54 94.76-18.832zM722.256 923.416c1.516-6.08 4.744-5.112 8.476-2.064-2.26 3.004-5.544 1.792-8.476 2.064zM772.992 912.956c2.244-3.312 5.628-2.024 8.668-2.136-1.672 5.628-4.908 4.968-8.668 2.136zM686.28 929.752c0.88-4.552 2.868-5.652 6.36-2.032-1.568 2.4-4.04 1.984-6.36 2.032zM698.976 927.632c0.884-4.544 2.864-5.644 6.364-2.04-1.568 2.412-4.04 1.996-6.364 2.04zM711.676 925.52c0.88-4.548 2.864-5.652 6.36-2.04-1.564 2.412-4.036 1.992-6.36 2.04zM785.688 910.856c2.108-2.92 4.248-2.944 6.42-0.072-2.116 2.624-4.256 2.608-6.42 0.072zM762.416 915.064c0.912-1.912 2.568-2.248 4.448-2.116-0.592 2.576-1.14 5.252-4.448 2.116zM749.764 919.164c0.092-2.844 1.516-4.248 4.396-4.108-0.248 2.676-1.672 4.088-4.396 4.108z" fill="#7A7B7B" /><path d="M410.936 388.124c-7.784-4.108-9.492-12.656-13.368-19.344-29.16-50.36-56.916-101.56-86.928-151.396-20.952-34.804-39.524-70.968-61.564-105.104-2.836-4.4-3.276-9.168-3.096-14.144 1.528 0.62 3.06 1.236 4.588 1.848 0.708 1.36 1.416 2.72 2.12 4.088 1.128 5.368 1.612 11.148 8.304 12.94 0.112 0.62 0.164 1.248 0.156 1.884 3.428 10.556 7.484 20.736 16.776 27.744 0.12 0.62 0.172 1.244 0.16 1.88 2.488 9.328 6.172 17.916 14.62 23.54l2.328 6.068c1.096 5.388 1.584 11.16 8.292 12.952 0.104 0.628 0.152 1.26 0.132 1.904 1.176 5.336 1.632 11.136 8.324 12.916 0.124 0.616 0.176 1.244 0.164 1.876 0.256 4.168 0.952 8.04 6.148 8.732l2.296 6.1c1.18 5.332 1.628 11.144 8.328 12.916 0.116 0.624 0.168 1.252 0.148 1.888 1.148 5.356 1.628 11.14 8.312 12.928 0.1 0.628 0.152 1.26 0.14 1.9 0.308 4.148 0.98 8.032 6.18 8.704 0.764 2.032 1.532 4.064 2.292 6.1 1.756 6.188 2.208 13.264 10.312 15.116l0.332 3.868c0.2 4.22 0.9 8.084 6.148 8.748 0.116 0.62 0.168 1.248 0.152 1.888 0.264 4.172 0.972 8.028 6.16 8.724 0.1 0.632 0.148 1.268 0.14 1.908 2.088 6.564 2.74 14 10.464 17.12 0.116 0.62 0.168 1.248 0.16 1.88 2.184 11.192 9.624 19.748 15.16 29.168 2.752 4.688 2.812 11.956 10.088 13.38l6.66 16.584c-0.22 0.904-0.424 1.804-0.628 2.696z" fill="#929292" /><path d="M404.892 368.848c-7.276-1.424-7.332-8.692-10.088-13.38-5.536-9.42-12.976-17.976-15.16-29.168 12.052 12.028 18.86 27.16 25.248 42.548zM277.924 146.636c-9.296-7.008-13.348-17.188-16.776-27.744 9.168 7.088 12.976 17.412 16.776 27.744zM292.704 172.056c-8.448-5.628-12.132-14.212-14.62-23.54 7.868 5.984 11.756 14.444 14.62 23.54z" fill="#A7A7A7" /><path d="M567.752 366.756c6.088-2.624 12.38-4.34 19.084-4.144-5.288 6.316-11.78 7.108-19.084 4.144z" fill="#E4E4E4" /><path d="M379.484 324.416c-7.724-3.12-8.372-10.56-10.464-17.12 7.184 3.452 8.216 10.66 10.464 17.12z" fill="#A7A7A7" /><path d="M525.424 375.16c5.26-3.032 11.212-3.204 16.992-4.048-4.544 6.048-10.168 7.556-16.992 4.048z" fill="#E4E4E4" /><path d="M356.092 282.164c-8.104-1.852-8.556-8.928-10.312-15.116 6.344 3.056 8.08 9.256 10.312 15.116z" fill="#A7A7A7" /><path d="M419.528 404.968c-6.752-2.708-7.752-8.692-8.432-14.852l4.492 1.964c0.712 1.356 1.424 2.716 2.14 4.068l1.8 8.82z" fill="#929292" /><path d="M260.992 117.012c-6.692-1.792-7.176-7.572-8.304-12.94 6.108 2.168 6.792 7.82 8.304 12.94zM303.324 191.076c-6.708-1.792-7.196-7.564-8.292-12.952 6.064 2.204 6.768 7.844 8.292 12.952zM311.78 205.896c-6.692-1.78-7.148-7.58-8.324-12.916 6.156 2.124 6.8 7.804 8.324 12.916zM328.712 235.52c-6.7-1.772-7.144-7.584-8.328-12.916 6.164 2.128 6.804 7.808 8.328 12.916zM337.172 250.34c-6.684-1.792-7.164-7.576-8.312-12.928 6.128 2.152 6.796 7.812 8.312 12.928zM318.092 216.504c-5.196-0.692-5.892-4.564-6.148-8.732 4.684 1.056 5.6 4.764 6.148 8.732zM343.492 260.944c-5.2-0.672-5.872-4.556-6.18-8.704 4.748 0.992 5.6 4.752 6.18 8.704zM362.572 294.776c-5.248-0.664-5.948-4.524-6.148-8.748 4.632 1.108 5.56 4.808 6.148 8.748zM368.88 305.388c-5.184-0.696-5.892-4.552-6.16-8.724 4.712 1.036 5.596 4.768 6.16 8.724z" fill="#A7A7A7" /><path d="M643.936 351.908c2.272-3.004 5.54-1.84 8.488-2.02-1.584 5.9-4.776 5.04-8.488 2.02zM480.988 383.684c2.26-3.044 5.536-1.88 8.492-2.044-1.584 5.872-4.784 5.012-8.492 2.044zM438.66 392.076c1.604-2.412 4.056-2.004 6.412-1.924-1.016 4.388-3.004 5.532-6.412 1.924zM449.24 389.98c1.596-2.428 4.056-2.024 6.416-1.94-1 4.404-3 5.528-6.416 1.94zM459.82 387.876c1.6-2.44 4.06-2.032 6.424-1.94-1.012 4.392-3.012 5.5-6.424 1.94zM470.404 385.78c1.592-2.46 4.06-2.04 6.428-1.948-1.016 4.372-3.016 5.484-6.428 1.948zM493.68 381.468c1.6-2.384 4.048-1.98 6.388-1.928-0.988 4.428-2.964 5.572-6.388 1.928zM698.96 341.308c1.588-2.424 4.048-2.02 6.4-1.956-0.98 4.428-2.972 5.536-6.4 1.956zM688.376 343.416c1.596-2.416 4.048-2.024 6.404-1.952-0.996 4.392-2.976 5.548-6.404 1.952zM514.844 377.264c1.6-2.412 4.052-2.012 6.404-1.936-1 4.392-2.984 5.544-6.404 1.936zM546.588 370.948c1.596-2.436 4.056-2.036 6.416-1.944-1.004 4.392-3.004 5.508-6.416 1.944zM557.168 368.832c1.596-2.444 4.068-2.02 6.424-1.944-1.012 4.384-3.008 5.516-6.424 1.944zM591.028 362.428c1.608-2.384 4.052-1.992 6.396-1.928-0.996 4.416-2.976 5.564-6.396 1.928zM601.608 360.332c1.604-2.404 4.052-2.008 6.404-1.932-1 4.396-2.984 5.548-6.404 1.932zM612.192 358.224c1.604-2.416 4.056-2.02 6.416-1.928-1.052 4.252-3.004 5.528-6.416 1.928zM633.36 354.032c1.588-2.456 4.052-2.048 6.416-1.948-1.008 4.376-3.008 5.492-6.416 1.948zM504.26 379.372c1.6-2.408 4.052-2 6.4-1.94-0.992 4.412-2.976 5.56-6.4 1.94zM656.628 349.712c1.608-2.376 4.052-1.976 6.392-1.924-0.984 4.444-2.964 5.58-6.392 1.924zM667.212 347.608c1.604-2.384 4.052-1.98 6.392-1.932-0.988 4.428-2.964 5.576-6.392 1.932zM677.796 345.528c1.592-2.408 4.044-2.028 6.392-1.956-0.98 4.408-2.96 5.548-6.392 1.956z" fill="#E4E4E4" /><path d="M415.584 392.08l-4.492-1.964a23.808 23.808 0 0 0-0.156-1.996l0.612-2.688c3.872 0.684 4.1 3.58 4.036 6.648z" fill="#A7A7A7" /><path d="M624.884 356.036c0.988-1.656 2.564-1.956 4.308-1.852-0.512 2.768-1.148 5.24-4.308 1.852zM430.192 392.196l4.292 0.068c-0.568 1.072-0.976 2.916-1.736 3.072-2.252 0.468-2.272-1.588-2.556-3.14z" fill="#E4E4E4" /><path d="M286.156 574.224c-4 7.38 1.984 13.2 3.872 19.204 5.108 16.236 11.768 32.016 18.332 47.752 2.292 5.492 3.688 12.508 11.676 13.32-0.392 8.816 1.412 17.792-1.7 28.596-10.74-22.62-18.712-43.996-25.756-65.8-5.804-17.956-12.452-35.64-18.712-53.448-0.788-2.24-0.964-5.544-4.532-2.336-7.964-8.328-8.88-20.124-14.552-29.648-3.232-5.428-8.18-10.484-7.596-18.48 6.148 1.808 9.316 6.168 11.944 10.94 5.868 10.644 13.344 20.476 16.692 32.416 0.868 3.104 2.968 4.592 6.076 4.852l4.256 12.632z" fill="#676767" /><path d="M436.48 542.504l0.16-14.76c3.812-2.64 0.104-8.168 4.116-10.732 7.372 12.768 14.772 25.52 22.1 38.308 17.976 31.384 35.792 62.724 40.548 99.628 3.076 23.9 4.488 48.336 11.752 71.288 7.164 22.62 8.416 45.3 8.124 68.516-0.228 18.304 0.172 36.624-0.148 54.932-0.116 6.644 2.412 9.056 8.732 8.06 1.32 0.768 2.644 1.54 3.968 2.304l-0.092 8.028c-4.932 3.972-12.052 1.572-16.908 5.78-4.58 0.944-8.408 3.056-11.02 7.06-3.84 2.92-4.932 7.32-6.252 11.6-4.708-3.564-2.968-9.184-4.4-13.8-1.296-6.416-1.924-13.016-5.212-18.888-0.12-6.016-3.328-11.156-4.776-16.784-5.312-20.572-13.684-39.812-25.636-57.356-5.284-7.76-11.8-14.316-22.696-11.96l-0.224-83.004c3.396 0.956 5.2 6.656 8.556 4.988 3.748-1.868 3.888-6.984 4.044-11.172 0.128-3.512 0.012-7.04 0.008-10.56l0.18-4.648c3.772 1.388 4.396 5.184 6.18 8.088 7.276 11.86 12.656 24.916 21.696 35.616 2.52 2.98 6.488 9.44 10.636 0.796 2.388-2.776 3.32-5.524 2.512-9.56-1.576-7.86-1.688-16-3.068-23.904-2.984-17.12-3.636-34.604-8.364-51.428 0.016-0.564 0.024-1.128 0.012-1.692-0.032-2.46 0.228-5.008-2.104-6.744-10.024-27.652-25.2-52.428-42.432-76.06a31.32 31.32 0 0 0 0.008-1.94z" fill="#43606D" /><path d="M438.836 773.732c10.896-2.356 17.412 4.2 22.696 11.96 11.952 17.544 20.324 36.784 25.636 57.356-8.432 3.328-19.112-0.108-25.784 8.536-1.816-0.408-2.876-1.424-3.704-3.216-5.516-11.956-10.928-23.976-16.892-35.708-6.592-12.96-12.892-26.348-27.336-32.844 8.46-2.028 16.92-4.06 25.384-6.084z" fill="#A7A7A7" /><path d="M413.452 779.816c14.444 6.496 20.744 19.884 27.336 32.844 5.964 11.732 11.376 23.752 16.892 35.708 0.828 1.788 1.888 2.808 3.708 3.216 0.94 4.116 1.872 8.244 2.808 12.364 4.884 20.66 4.884 20.684 24.948 16.8 2.704-0.52 5.344-1.344 8.016-2.028 1.432 4.616-0.308 10.24 4.4 13.792l-0.196 15.804c-4.852 0.696-9.808-0.372-14.644 1.44-7.372 2.764-12.372-0.444-15.076-7.344-4.088-10.432-8.908-20.516-12.296-31.328a307.7 307.7 0 0 0-34.108-73.396c-3.556-5.584-7.684-12.236-16.228-11.836l-5.676-0.172c0.756-3.876 4.492-3.968 7.048-5.536 1.016-0.1 2.04-0.216 3.068-0.328z" fill="#929292" /><path d="M451.216 673.984c0.004 3.52 0.12 7.048-0.008 10.56-0.156 4.188-0.296 9.304-4.044 11.172-3.356 1.668-5.16-4.032-8.556-4.988-1.72-6.8-6.004-12.128-10.104-17.568-0.14-1.248-0.276-2.496-0.408-3.752 0.8-5.584-1.612-11.948 3.936-16.404 4.66 8.584 5.312 20.824 19.184 20.98z" fill="#2F2F2F" /><path d="M428.1 669.412c0.132 1.252 0.268 2.5 0.408 3.752-4.296 0.572-8.084-0.376-11.06-3.732 3.552-0.012 7.1-0.016 10.652-0.02z" fill="#7A7B7B" /><path d="M834.46 811.22c3.584-0.216 7.388 0.832 10.52-1.888 23.596-4.624 30.428 8.772 31.6 30.18 0.632 11.532 0.176 23.12 0.212 34.68-7.468 7.3-17.556 5.992-26.6 7.84-29.756 6.084-59.6 11.78-89.408 17.616-0.452-24.496-1.024-48.996 1.768-73.416l71.908-15.012z m18.688 30.088c-1.548-6.22-6.808-5.612-10.972-5.024-14.088 1.988-28.236 3.996-42.076 7.228-8.352 1.948-13.592 8.348-14.372 17.4-0.752 8.824-0.12 17.072 10.184 20.44 3.06 3.424 6.012 7.084 11.44 5.92 13.244-2.836 26.584-5.312 39.704-8.676 7.584-1.936 13.136-7.292 14.256-15.304 1.2-8.488 0.992-17.06-8.164-21.984z" fill="#48C2FE" /><path d="M438.708 847.128c-0.684-9.64-7.284-16.792-10.624-25.324-3.06-11.996-14.072-18.884-19.036-29.656l0.068-0.064c3.808-0.164 6.088 1.62 8.732 4.564 13.2 14.728 19.42 33.036 27.116 50.612-2.088-0.04-4.172-0.084-6.256-0.132zM403.336 785.684l5.676 0.172c0.036 2.072 0.072 4.152 0.1 6.232l-0.068 0.064c-4.18-0.016-8.356-0.04-12.532-0.064 1.152-3.336 4.516-4.304 6.824-6.404z" fill="#7A7B7B" /><path d="M438.708 847.128c2.084 0.048 4.168 0.088 6.252 0.128l2.288 12.584c-0.076 2.788 1.348 4.168 4.076 4.324l2.256 12.612c6.464 20.968 14.244 41.436 23.116 61.524 2.808 6.356 6.668 9.548 13.684 8.204 1.264 7.756 3.084 15.432 2.728 23.376-7.2 3.832-11.344 2.92-15.408-5.548-7.444-15.524-14.248-31.736-18.668-47.792-6.4-23.252-14.556-45.988-20.324-69.412z" fill="#676767" /><path d="M735.364 375.036c-23.96 4.972-47.892 10.1-71.892 14.876-31.248 6.216-62.544 12.136-93.816 18.212-41.228 8.016-82.444 16.108-123.684 24.048-5.812 1.12-10.648-0.008-14.544-5.632-4.368-6.308-10.288-11.56-11.756-19.584 2.224 0.076 4.404 0.748 5.544 2.596 7.54 12.236 18.528 9.516 29.656 7.276 54.828-11.032 109.62-22.272 164.548-32.772 36.396-6.956 72.892-13.348 109.064-21.428 2.276 3.588 4.564 7.176 6.84 10.76-0.04 0.556-0.028 1.104 0.04 1.648z" fill="#929292" /><path d="M735.364 375.036a8.716 8.716 0 0 1-0.044-1.648c18.624-1.956 18.624-1.956 18.636 17.248 0.004 4.864-0.004 9.728-0.008 14.588-6.38-9.944-9.84-21.692-18.584-30.188z" fill="#FEFEFE" /><path d="M501.364 908.316l0.196-15.804c1.32-4.272 2.412-8.672 6.256-11.584 10.224 6.844 4.096 17.032 4.824 27.748 5.088-7.508 11.228-11.08 18.036-12.08 11.708-1.716 23.164-4.404 34.708-6.832 5.028-1.068 10.544-0.912 14.552 3.64-12.348 2.288-24.74 4.364-37.016 6.98-4.632 0.988-12.084 1.84-12.292 6.312-0.492 10.536-5.652 22.188 3.896 31.616-7.84-2.356-15.884-4.184-23.316-9.572v19.804l-2.812 0.152c-5.972-1.86-5.984-6.908-6.152-11.74-0.244-6.912-0.276-13.82-0.4-20.728-0.164-2.632-0.32-5.268-0.48-7.912z" fill="#27669D" /><path d="M501.364 908.316l0.476 7.916c-6.752 1.368-15.04 0.76-14.516 11.392-5.64 4.528-8.964 1.42-11.256-3.696-3.56-7.94-6.264-16.304-10.356-23.944-4.128-7.692-3.824-17.732-12.128-23.204l-2.256-12.612c0-2.724-1.344-4.176-4.076-4.324l-2.288-12.584c-7.696-17.576-13.916-35.884-27.12-50.608-2.64-2.94-4.924-4.728-8.732-4.564l-0.1-6.232c8.544-0.4 12.672 6.248 16.228 11.836a307.7 307.7 0 0 1 34.108 73.396c3.392 10.812 8.208 20.896 12.296 31.328 2.7 6.9 7.7 10.108 15.076 7.344 4.836-1.816 9.788-0.748 14.644-1.444z" fill="#828283" /><path d="M453.584 876.78c8.304 5.472 8 15.512 12.128 23.204 4.092 7.64 6.8 16.004 10.356 23.944 2.292 5.116 5.616 8.224 11.256 3.696 4.488 5.732 1.076 12.748 3.052 18.884-7.004 1.344-10.868-1.848-13.676-8.204-8.872-20.084-16.652-40.552-23.116-61.524z" fill="#7A7B7B" /><path d="M525.82 640.092c1.844-2.328 2.84-5.436 5.972-6.6-1.58 28.58 5.98 56.14 9.4 84.164 0.756 6.22 2.008 12.38 3.12 18.552 2.596 14.392 5.176 16.716 19.456 18.016 1.288 0.116 2.512 0.988 3.764 1.512-18.448 4.26-26.892-1.632-29.36-20.404-0.312-2.384-1.016-4.716-1.536-7.064-0.556-4.496-1.22-8.984-1.656-13.488-2.432-24.968-9.896-49.328-9.16-74.688z" fill="#2F2F2F" /><path d="M525.816 640.092c-0.736 25.36 6.732 49.72 9.168 74.688 0.436 4.504 1.1 8.992 1.656 13.488-5.716 0.656-5.716 5.108-4.736 8.736 10.956 40.356 7.776 81.648 8.496 122.68l-4.572 0.36c-1.324-0.756-2.648-1.528-3.968-2.296-0.028-12.684-0.04-25.372-0.072-38.056-0.048-21.408 0.552-42.776-4.024-63.992-3.68-17.068-5.484-34.524-8.752-51.692-5.816-30.556-5.192-61.988-21.712-90.892-12.092-21.152-22.588-43.516-34.268-65.12-6.748-12.488-17.108-23.516-18.028-38.772l6.324-4.048c-1.192 8.292 4.76 13.756 8.38 19.896 16.316 27.72 30.784 56.408 45.7 84.872 5.604 10.68 13.54 20.136 20.408 30.148z" fill="#247DD0" /><path d="M445.008 509.224c0.92 15.256 11.28 26.284 18.028 38.772 11.68 21.604 22.176 43.968 34.268 65.12 16.52 28.904 15.896 60.336 21.712 90.892 3.264 17.168 5.072 34.624 8.752 51.692 4.576 21.216 3.976 42.584 4.024 63.992 0.032 12.684 0.044 25.372 0.072 38.056-6.32 0.996-8.848-1.416-8.732-8.06 0.32-18.308-0.08-36.628 0.148-54.932 0.288-23.216-0.96-45.896-8.124-68.516-7.264-22.952-8.676-47.392-11.752-71.288-4.756-36.908-22.572-68.248-40.548-99.628-7.328-12.788-14.728-25.54-22.1-38.308 0.148-3.292-0.004-6.744 4.252-7.792z" fill="#27669D" /><path d="M579.928 893.404c-4.008-4.552-9.524-4.708-14.552-3.64-11.544 2.428-23 5.116-34.708 6.832-6.808 1-12.944 4.572-18.036 12.08-0.728-10.716 5.404-20.904-4.824-27.748 2.608-4.012 6.44-6.12 11.016-7.064 0.172 10.104 6.128 12.564 14.84 11.028 10.988-1.94 22.072-3.576 32.884-6.268 14.456-3.604 29.864-3.136 43.504-10.16 0.62 0.072 1.24 0.156 1.856 0.256 2.94 8.784-0.144 17.672 0.364 26.544 0.656 11.432 0.028 22.944-0.048 34.416-31.584 6.292-63.16 12.612-94.756 18.832-2.016 0.4-4.184 0.036-6.272 0.036v-19.804c7.432 5.388 15.476 7.216 23.312 9.572 8.088 0.444 15.808-1.928 23.644-3.28 8.768-1.52 17.828-1.52 25.892-6.496 9.432-5.828 9.796-14.688 8.804-23.928-0.78-7.336-5.716-10.808-12.92-11.208z" fill="#38A2FD" /><path d="M611.916 868.72a36.292 36.292 0 0 0-1.856-0.256 4.184 4.184 0 0 1-0.028-1.796c-2.216-14.328 4.472-28.632 0.092-42.964 2.792-6.516 8.524-7.912 14.748-9.724 8.436-2.46 16.752-4.752 25.58-4.828-0.172 11.772-11.404 8.296-16.24 9.184-19.032 3.472-17.132 18.44-19.836 31.08-1.352 6.336 2.16 13.336-2.46 19.304z" fill="#43606D" /><path d="M610.032 866.664c-0.12 0.596-0.112 1.2 0.028 1.796-13.64 7.024-29.048 6.556-43.504 10.16-10.812 2.696-21.896 4.328-32.884 6.268-8.712 1.536-14.668-0.92-14.84-11.028 4.856-4.216 11.972-1.812 16.908-5.784 19.368-0.392 37.712-7.076 56.784-9.304 3.796-0.44 7.612-0.776 11.416-1.164 2.316 2.824 2.728 6.932 6.092 9.056z" fill="#48C2FE" /><path d="M610.032 866.664c-3.364-2.124-3.772-6.232-6.092-9.056 0.024-7.892-0.228-15.792 0.164-23.664 0.208-4.18 2.208-7.9 6.024-10.244 4.376 14.332-2.312 28.636-0.096 42.964zM489.912 713.84c-4.152 8.644-8.116 2.184-10.636-0.796-9.044-10.704-14.42-23.756-21.696-35.616-1.788-2.908-2.408-6.704-6.18-8.088l0.048 0.072c-2.008-9.032-7.916-15.98-12.608-23.576-3.204-11.66-12.248-21.104-12.088-34.136 0.22-17.92-0.44-35.852-0.356-53.776 0.012-2.944 1.06-6.976 4.376-7.852 3.184-0.84 4.504 2.72 5.816 5.088 13.724 24.832 28.9 48.944 38.14 76.032 1.044 19.576 5 38.764 7.644 58.124 1.168 8.588 0.62 17.708 7.54 24.524z" fill="#2F2F2F" /><path d="M489.912 713.84c-6.92-6.816-6.372-15.936-7.544-24.528-2.644-19.36-6.596-38.552-7.644-58.124 1.984-1.044 7.076 6.652 6.272-2.236 4.728 16.82 5.38 34.304 8.364 51.424 1.38 7.904 1.492 16.044 3.068 23.904 0.804 4.036-0.128 6.784-2.516 9.56zM451.216 673.984c-13.872-0.156-14.524-12.396-19.18-20.976 0.316-4.096 2.984-4.896 6.44-4.592 2.768 7.952 5.088 16.192 12.968 20.992l-0.048-0.072-0.18 4.648z" fill="#5D5546" /><path d="M451.444 669.408c-7.88-4.8-10.196-13.04-12.968-20.992l0.356-2.584c4.7 7.592 10.604 14.544 12.612 23.576z" fill="#43606D" /><path d="M478.904 620.516c2.332 1.736 2.076 4.28 2.104 6.744-2.584-1.66-2.116-4.276-2.104-6.744z" fill="#5D5546" /><path d="M436.48 542.504c0.016 0.652 0.016 1.304-0.008 1.952-0.268-0.468-0.568-0.92-0.756-1.42-0.028-0.072 0.496-0.348 0.764-0.532z" fill="#7A7B7B" /><path d="M497.16 878.72c-2.672 0.684-5.316 1.508-8.016 2.028-20.064 3.884-20.064 3.86-24.948-16.8 9.52 0.448 18.56-2.372 27.752-4.112 3.288 5.868 3.916 12.464 5.212 18.884z" fill="#A7A7A7" /><path d="M491.944 859.832c-9.196 1.744-18.232 4.564-27.752 4.112-0.932-4.12-1.864-8.248-2.804-12.364 6.668-8.644 17.348-5.208 25.78-8.536 1.452 5.632 4.66 10.772 4.776 16.788z" fill="#CFCFCF" /><path d="M853.148 841.308c9.156 4.92 9.364 13.496 8.168 21.984-1.12 8.012-6.676 13.368-14.256 15.304-13.116 3.364-26.46 5.84-39.704 8.676-5.428 1.164-8.384-2.496-11.44-5.92 0.576-6.996 1.876-14.036 1.524-20.984-0.352-7.072 3.72-9.792 9.02-10.94 15.444-3.336 30.764-7.532 46.688-8.12z" fill="#FEFEFE" /><path d="M853.148 841.308c-15.924 0.584-31.248 4.784-46.692 8.116-5.3 1.148-9.372 3.872-9.02 10.94 0.352 6.948-0.948 13.988-1.524 20.984-10.304-3.372-10.936-11.616-10.184-20.44 0.776-9.052 6.02-15.448 14.372-17.4 13.84-3.232 27.984-5.24 42.076-7.228 4.164-0.584 9.424-1.192 10.972 5.028z" fill="#27669D" /><path d="M447.252 859.844c2.732 0.148 4.076 1.6 4.076 4.324-2.728-0.156-4.152-1.536-4.076-4.324z" fill="#7A7B7B" /><path d="M579.928 893.404c7.204 0.404 12.136 3.876 12.92 11.204 0.992 9.244 0.628 18.1-8.804 23.928-8.064 4.976-17.12 4.976-25.892 6.496-7.836 1.352-15.556 3.728-23.644 3.28-9.544-9.428-4.384-21.084-3.892-31.616 0.208-4.472 7.66-5.324 12.292-6.312 12.284-2.62 24.676-4.692 37.02-6.98z" fill="#FEFEFE" /></svg>