<svg class="svg-icon" style="width: 1em;height: 1em;vertical-align: middle;fill: currentColor;overflow: hidden;" viewBox="0 0 1024 1024" version="1.1" xmlns="http://www.w3.org/2000/svg"><path d="M713.544 497.428L289.14 224.384l244.812-151.676 431.744 266.46z" fill="#FEFEFE" /><path d="M964.008 594.292c0.412 7.904-3.472 14.448-6.696 21.208-21.756 13.04-43.38 26.308-65.3 39.064-58.1 33.808-116.34 67.376-174.492 101.076-14.868 8.616-30.204 12.452-46.252 3.728-17.66-9.6-35.124-19.56-52.516-29.652-41.264-23.948-82.392-48.148-123.664-72.092-31.548-18.296-63.328-36.2-94.832-54.564-35.148-20.492-70.1-41.304-105.136-61.98l-4.516-4.34c-1.352-2.396-2.516-4.924-4.092-7.164-8.804-12.564-13.94-26.22-12.984-41.788 5.444-0.94 3.728-5.3 3.768-8.48 0.784-65.932 1.484-131.872 2.164-197.812 0.112-10.648-0.004-21.292 0.072-31.94 0.12-17.136 6.32-21.508 21.808-14.752 21.088 9.2 40.208 21.9 59.928 33.64 48.024 28.588 97.096 55.408 145.304 83.696 61.344 36.004 126.348 65.908 183.596 108.668 11.66 8.712 21.244 22.096 23.376 36.628 2.7 18.384 1.248 37.368 2.336 56.108 1.424 24.532 0.352 49.216 0.36 73.824 0.004 30.52 0 61.048 0.016 91.576 0.004 15.652 1.332 16.576 15.272 8.664 21.792-12.368 43.328-25.196 65.048-37.7 28.776-16.58 57.72-32.884 86.432-49.592 26.84-15.628 53.272-31.952 81-46.024z" fill="#909090" /><path d="M295.116 541.076c35.036 20.676 69.992 41.488 105.136 61.98 31.504 18.364 63.284 36.264 94.832 54.564 41.272 23.944 82.4 48.144 123.664 72.092 17.392 10.092 34.856 20.052 52.516 29.652 16.052 8.728 31.388 4.892 46.252-3.728 58.152-33.7 116.392-67.264 174.492-101.076 21.92-12.752 43.544-26.024 65.3-39.064 18.16 6.572 24.552 19.236 23.66 38.588-1.34 28.932-0.2 57.992-0.116 86.992-0.916 3.532-4.084 4.712-6.772 6.296a8290.932 8290.932 0 0 1-41.156 24.008c-42.748 24.78-85.52 49.524-128.256 74.32-27.764 16.104-56.024 31.352-83.084 48.676-20.66 13.236-41.848 23.932-64.752 3.976-0.752-0.652-1.944-0.804-2.924-1.192-4.704-13.32-9.964-26.396-17.44-38.46-2.776-5.212-5.208-10.632-8.384-15.584-13.496-21.008-27.956-41.192-49.368-55.124-8-7.612-17.392-13.308-27.316-17.756-23.636-10.6-47.248-13.704-69.832 3.032-7.488 2.648-12.516 8.804-18.792 13.188-10.28-6.188-20.62-12.28-30.828-18.584-6.228-3.848-7.856-1.624-7.716 4.876 0.252 11.676 0.056 23.356 0.048 35.036-0.648 2.576 1.288 5.604-1.432 7.804-7.264 1.976-9.352-1.172-9.236-8.18 0.328-19.52 0.144-39.036 0.16-58.564 12.56-6.784 12.98-8.016 6.16-18.064-1.856-7.084-8.304-9.34-13.644-12.452-31.748-18.52-63.648-36.768-95.436-55.216-12.512-7.268-15.772-7.012-26.804 3.124-0.78 3.008-1.68 5.988-2.304 9.036-0.432 2.112-1.012 5.096-3.5 3.588-7.316-4.416-17.656-5.208-20.168-15.788 0.088-6.016 0.332-12.04 0.232-18.06-0.116-6.904 1.288-14.384-6.02-19.052l-23.228-32.016c-12.372-20.388-28.38-37.452-47.376-51.764-28.748-21.652-67.708-34.916-102.54-7.356-3.592 0.652-7.296 3.748-10.672-0.48-3.528-12.204-3.572-12.28-14.268-5.992-3.308 1.94-6.284 4.444-9.412 6.696l-1.544 1.772c-7.356 1.356-11.34-6.244-17.992-6.772a11.18 11.18 0 0 1-0.712-0.956 7.252 7.252 0 0 1-1.316-1.54c-0.336-1.924 0.3-4.148-1.668-5.584 0.268-1.304 0.54-2.596 0.816-3.896 2.764-15.648 0.584-31.424 1.268-47.124 0.384-2.78 0.196-5.72 2.208-8.044 11.848 7.944 22.5 8.444 30.916-4.976a1.616 1.616 0 0 1 0.86-0.596c9.16-2.716 9.9-9.696 9.048-17.6-0.34-3.14-0.308-6.332-0.444-9.5 0.1-20.576 0.396-41.152 0.244-61.724-0.16-21.324 4.244-41.376 15.24-59.796 1.048-0.288 1.556-0.872 1.068-1.988l0.436-0.568c3.236 0.752 4.24-1.656 5.504-3.812 4.82-8.216 9.584-16.464 14.556-24.588 11.404-18.636 24.356-20.572 42.1-7.488 9.236 6.812 19.064 13.18 31.028 14.552l3.696 1.452c-0.036 4.936 4.588 4.688 7.328 6.268 8.844 5.1 18.968 8.564 26.644 14.988 17.216 14.416 35.788 23.14 58.66 20.592l0.8 159.656c-0.956 15.568 4.18 29.224 12.984 41.788 1.576 2.24 2.74 4.768 4.084 7.164-9-0.636-17.916-0.496-24.36 7.048-2.84 3.328-6.72 7.472 0.212 11.048 38.42 19.812 75.156 42.608 112.708 63.968 95.464 54.292 190.792 108.82 286.212 163.204 6.748 3.848 13.904 6.992 20.592 10.928 6.844 4.02 8.76-3.088 11.608-5.68 2.652-2.416-2.008-4.868-4.272-6.816-11.248-9.676-24.736-15.764-37.396-23.104-30.784-17.86-62.256-34.568-92.688-52.988-44.752-27.096-90.64-52.188-135.832-78.504-38.4-22.348-76.8-44.712-114.984-67.416-7.028-4.172-15.552-7.576-17.288-17.34zM232.532 386.084h0.068c0-8.168-0.028-16.336 0.004-24.504 0.064-14.584-5.684-26.9-17.788-34.4-23.468-14.54-47.572-28.096-71.764-41.416-11.04-6.08-21.132-2.836-27.236 7.788-6.172 10.752-12.088 21.684-17.416 32.872-8.024 16.864-4.916 25.656 11.36 35.136 20.808 12.124 41.344 24.72 62.44 36.312 15.512 8.516 29.728 19.388 46.264 25.976 9.072 3.612 13.38 0.832 13.948-9.004 0.552-9.56 0.12-19.172 0.12-28.76z m-36.172 50.852c0 8.232 0.036 14.56-0.016 20.892-0.028 3.316 0.264 6.44 3.568 8.268 8.048 4.448 16.08 8.94 24.192 13.268 1.692 0.904 3.68 2.508 5.6 0.1 2.772-3.484-0.064-23.336-3.928-25.628-9.072-5.376-18.28-10.524-29.416-16.9z" fill="#237053" /><path d="M273.528 487.784l-0.8-159.652 0.448-8.552c-0.028-24.352-0.04-48.708-0.096-73.06-0.024-8.444 0.512-16.788 3.764-24.732 0.692 3.872 2.812 3.876 6.204 3.02 9.004-2.276 17.412-0.38 25.524 4.168 51.296 28.74 102.724 57.244 154 86.024 41.688 23.4 83.392 46.772 124.752 70.748 21.008 12.176 44.14 21.068 61.664 38.912 2.596 2.644 6.604 4.272 10.264 5.428 20.32 6.436 33.744 21.452 46.792 36.988 9.512 11.336 13.404 11.836 25.788 4.672 56.608-32.728 113.3-65.304 169.96-97.944 16.82-9.692 33.468-19.728 50.548-28.944 6.388-3.444 8.936-9.168 11.792-15.724 2.652 3.852 1.556 7.064 1.556 10.032 0.08 80.908 0.08 161.808 0.052 242.716 0 4.188 0.912 8.572-1.74 12.408-27.728 14.072-54.16 30.396-81 46.016-28.716 16.712-57.656 33.016-86.432 49.592-21.72 12.504-43.252 25.332-65.048 37.7-13.94 7.912-15.268 6.988-15.272-8.664-0.016-30.528-0.012-61.056-0.016-91.576-0.008-24.608 1.068-49.292-0.36-73.824-1.088-18.744 0.364-37.728-2.336-56.108-2.132-14.532-11.716-27.916-23.376-36.628-57.248-42.76-122.248-72.664-183.596-108.668-48.208-28.288-97.28-55.108-145.304-83.696-19.72-11.74-38.84-24.44-59.928-33.64-15.492-6.756-21.688-2.384-21.808 14.752-0.076 10.648 0.04 21.296-0.072 31.94-0.68 65.94-1.38 131.88-2.164 197.812-0.032 3.184 1.684 7.54-3.76 8.484z" fill="#B6B6B6" /><path d="M653.904 897.168c0.984 0.388 2.176 0.54 2.928 1.192 22.904 19.956 44.088 9.256 64.752-3.976 27.064-17.324 55.32-32.572 83.084-48.676 42.74-24.796 85.512-49.54 128.256-74.32 13.744-7.964 27.46-15.964 41.156-24.008 2.688-1.584 5.856-2.764 6.772-6.296 5.912 3.136 12.096 5.86 17.628 9.56 3.696 2.472 7.292 5.88 7.348 11.06 0.12 11.348 0.28 22.704 0.084 34.04-0.08 4.6-3.092 7.488-7.072 9.78-70.012 40.312-139.972 80.704-209.932 121.092-23.396 13.504-46.912 26.812-70.068 40.716-6.368 3.82-11.364 3.268-17.436-0.076-11.964-6.576-22.768-15.4-36.216-19.164-1.284-2.076-3.652-4.14-3.672-6.22-0.072-15.356-5.768-29.692-7.612-44.704z" fill="#333333" /><path d="M276.848 221.792c-3.252 7.94-3.788 16.284-3.764 24.732 0.056 24.352 0.068 48.708 0.096 73.06-19.868 6.948-35.564-3.464-51.84-12.144-13.628-7.264-26.06-16.908-41.24-21.156l-3.688-1.444c0.108-4.964-4.564-4.624-7.26-6.316a224.408 224.408 0 0 0-56.304-25.356c8.184-20.144 28.228-25.752 44.548-35.476 43.124-25.684 86.768-50.5 130.22-75.636 20.052-11.6 39.656-24.124 60.36-34.408 18.728-9.308 38.592-10.868 57.796 0.416 7.884 4.632 15.88 9.076 24.416 13.948-30.744 18.248-60.504 36.284-91.14 52.856-15.496 8.376-30.5 17.68-45.516 26.916-7.68 4.716-13.668 11.216-16.684 20.008z m-126.444 28.94c29.024 20.332 59.54 38.192 91.732 53.132-29.064-20.28-59.44-38.304-91.732-53.132z" fill="#5FFED8" /><path d="M230.668 718.34c-4.152-1.376-5.472 1.968-7.492 4.364-26.216 31.124-63.904 29.116-90.788 10.804-35.9-24.452-55.168-59.104-55.584-103.132-0.04-4.384-1.152-6.088-4.808-7.732-6.108-2.736-11.86-6.2-16.624-11.048-0.424-3.084-1.668-6.32-1.136-9.244 3.172-17.524 24.568-32.988 42.652-31.252 2.82 0.276 6.368 0.024 6.652 3.656 0.292 3.752-3.804 1.976-5.608 3.232-2.016 1.408-4 2.916-5.732 4.648-2.168 2.176-5.848 4.544-3.644 7.908 2.444 3.72 5.912 0.564 8.42-0.82 14.756-8.112 27.952-2.492 39.46 6.016 32.992 24.392 54.504 56.66 61.616 97.464 1.596 9.176 7.276 11.004 14.416 14.468-0.792-12.964-3.732-23.456-6.432-33.98-0.596-2.336-0.688-4.344 1.624-5.428 2.832-1.34 3.648 1.208 4.568 2.98 7.792 15.052 14.356 30.584 18.44 47.096z m-81.328-36.268c-1.38-13.204-8.78-26.184-23.64-34.124-10.044-5.36-19.62 0.116-20.732 11.272-1.368 13.772 9.488 33.58 21.86 39.868 13.092 6.664 22.492 0.98 22.512-17.016zM637.812 953.012c-6.292 0.12-8.612 5.752-11.784 9.416-21.544 24.92-58.668 23.88-83.172 8.316-39.108-24.848-57.936-61.508-58.736-107.632-0.024-1.4-0.32-2.796-0.488-4.196 3.784-10.188 5.76-21.168 13.072-29.812 4.224-2.436 8.24-5.056 12.96-6.792 12.944-4.768 22.896 3.86 34.116 6.716l-0.128-0.104c1.276 2.784 3.348 4.384 6.508 4.364l-0.1-0.12 2.252 3.308 3.076 3.1 9.692 8.648-0.108-0.156 2.252 3.332a2.168 2.168 0 0 0 0.956 0.948l3.32 2.252-0.14-0.124 2.264 2.252-0.124-0.116c0.344 4.248 2.876 6.86 6.488 8.648l-0.092-0.116c-0.144 3.24 1.468 5.3 4.356 6.516l-0.092-0.12c0.664 4.496 2.504 8.288 6.496 10.776l-0.1-0.132c6.056 16.748 13.72 32.992 15.512 51.048 0.232 2.324 2.056 3.556 4.124 4.352l0.708-0.012 3.404 2.088c2.544 1.276 4.884 3.632 10.132 1.688-5.752-4.632-6.276-10.392-7.556-15.752-5.208-21.752-13.152-42.32-25.396-61.116-2.416-3.72-3.164-7.784-3.144-12.088 7.152 4.04 11.292 10.68 15.128 17.584-0.012 2.284 1.132 3.54 3.408 3.772 3.136 1.328 2.916 4.148 3.02 6.82 0.668 3.492 1.104 7.16 5.636 7.908l2.928 9.064c0.776 4.164 2.744 7.888 4.204 11.8 5.372 14.432 13.792 27.844 15.148 43.672z m-81.06-29.352c-0.416-18.784-8.704-30.332-20.784-39.412-4.964-3.736-11.06-4.88-16.884-1.188-6.224 3.936-7.548 10.348-6.536 16.82 2.016 13.004 7.972 23.916 18.284 32.608 5.784 4.884 11.564 6.572 18.272 3.456a12.812 12.812 0 0 0 7.648-12.284zM413.768 748.856c-0.012 19.52 0.168 39.036-0.16 58.556-0.12 7.008 1.972 10.156 9.236 8.18-7.928 10.632-14.424 12.264-24.432 6.48-33.232-19.224-66.512-38.368-99.776-57.544-9.168-5.284-16.732-11.364-17.02-23.472-0.44-18.448-4.44-22.768-23.408-27.816-1.104-3.56-5.056-5.528-4.616-10.168 0.944-10.028-2.636-19.48-4.664-29.132-1.016-4.84-3.48-9.576-2.292-15.404l11.432 4.544c2.512 10.584 12.852 11.372 20.168 15.788 2.488 1.508 3.068-1.476 3.5-3.588 0.624-3.048 1.524-6.028 2.304-9.036 5.808-1.28 10.2 1.996 14.768 4.624 26.956 15.5 53.96 30.9 80.796 46.604 10.316 6.036 21.528 10.784 30.064 19.588 0.216 4.332 1.776 8.196 4.1 11.796z" fill="#333333" /><path d="M258.068 663.08l-11.432-4.544c-1.184 5.828 1.276 10.564 2.292 15.404 2.024 9.652 5.608 19.104 4.664 29.132-0.44 4.64 3.512 6.608 4.616 10.168-4.12 4.288-8.836 7.324-15.076 7.152-3.952-17.448-13.028-32.82-21.796-47.864-10.056-17.268-23-32.876-34.912-49.044-19.18-26.032-42.196-47.384-73.14-58.86-18.732-6.952-41.48-7.388-58.048 11.724-7.036 8.116-8.188 18.624-14.268 26.82-6.612-5.652-0.012-12.972-2.42-19.156 5.672-9.82 8.004-21.372 16.312-29.908 3.516-3.62 0.064-6.212-3.352-7.98-3.94-2.024-9.052-3.052-8.272-9.296 0.512-0.588 1.028-1.184 1.548-1.772 2.248 0.716 4.496 1.424 6.744 2.148 6.32 5.932 12.168 11.084 22.572 8.916 7.984-1.668 16.72-1.04 25.224 0.844 25.7 5.668 46.868 19.38 65.664 36.852 17.104 15.892 33.18 32.888 49.728 49.38 12.56 12.524 29.232 9.304 37.568-7.232 7.308 4.672 5.904 12.152 6.02 19.056 0.092 6.02-0.148 12.044-0.236 18.06zM618.456 897.54c-0.976-3.02-1.956-6.044-2.92-9.06 0.104-4.056-0.412-7.668-5.644-7.912-0.104-2.672 0.116-5.492-3.012-6.816 0.92-3.12-0.416-4.2-3.416-3.776-3.836-6.908-7.976-13.548-15.128-17.584-3.936-11.276-15.024-16.384-21.728-25.228-13.036-17.176-30.692-25.884-51.324-30.844-26.584-6.388-53.888 6.6-60.688 33.476-1.268 5.008-3.748 6.248-8.084 6.136l-0.4-8.928c6.212-4.364 5.868-10.948 5.912-17.408l-0.128 0.196c2.016-0.844 2.172-2.644 2.268-4.464l-0.176 0.116c6.392-1.632 8.6-7.916 12.828-11.908 5.728-5.412 12.284-8.368 19.716-9.316 19.624-2.492 37.936 2.356 54.928 11.804 25.752 14.3 47.82 33.536 68.9 53.832 7.664 7.376 15.288 12.104 26.108 8.848 7.476 12.068 12.74 25.14 17.44 38.46 1.84 15.012 7.54 29.348 7.616 44.704 0.02 2.08 2.388 4.144 3.672 6.22-5.092 6.172-11.276 9.776-19.6 8.312-3.232-20.664-14.26-38.188-22.856-56.7-0.828-1.772-2.316-2.5-4.284-2.16z" fill="#909090" /><path d="M40.976 603.168c6.08-8.196 7.232-18.704 14.268-26.82 16.568-19.108 39.316-18.676 58.048-11.724 30.94 11.476 53.956 32.828 73.14 58.86 11.912 16.168 24.852 31.772 34.912 49.044 8.764 15.044 17.844 30.416 21.796 47.864-4.104-0.996-8.904 2.204-12.464-2.056-4.084-16.508-10.648-32.04-18.444-47.092-0.92-1.772-1.736-4.32-4.568-2.98-2.312 1.084-2.22 3.092-1.624 5.428 2.7 10.524 5.64 21.016 6.432 33.98-7.14-3.464-12.82-5.292-14.416-14.468-7.112-40.804-28.624-73.076-61.616-97.464-11.504-8.508-24.704-14.128-39.46-6.016-2.508 1.384-5.976 4.54-8.42 0.82-2.204-3.364 1.476-5.732 3.644-7.908 1.732-1.732 3.716-3.244 5.732-4.648 1.804-1.252 5.9 0.52 5.608-3.232-0.284-3.632-3.832-3.38-6.652-3.656-18.084-1.736-39.48 13.732-42.652 31.252-0.528 2.92 0.712 6.16 1.136 9.244-5.876-0.976-9.824-5.244-14.4-8.428zM446.512 835.932c4.336 0.112 6.816-1.128 8.084-6.136 6.8-26.876 34.104-39.864 60.688-33.476 20.632 4.96 38.288 13.668 51.324 30.844 6.704 8.844 17.788 13.948 21.728 25.228-0.02 4.304 0.728 8.372 3.144 12.088 12.244 18.796 20.188 39.364 25.396 61.116 1.276 5.36 1.804 11.116 7.556 15.752-5.248 1.944-7.588-0.412-10.144-1.688-1.132-0.7-2.26-1.396-3.392-2.088l-0.716 0.012c0.848-18.228-7.284-33.984-13.86-50.152-1.02-2.52-2.14-5.384-5.768-5.248l0.1 0.132c-0.068-4.856-0.368-9.576-6.496-10.776l0.092 0.12c0.192-3.272 0.192-6.416-4.356-6.516l0.092 0.116c0.296-4.724-0.936-8.3-6.488-8.648l0.124 0.116c-0.752-0.748-1.508-1.508-2.264-2.252l0.14 0.124c-0.568-1.552-1.748-2.192-3.32-2.252a2.176 2.176 0 0 1-0.956-0.952c-0.048-1.588-0.652-2.796-2.252-3.328l0.108 0.156c0.512-7.08-3.272-9.336-9.692-8.648-1.028-1.04-2.048-2.072-3.076-3.1-0.048-1.584-0.636-2.804-2.252-3.308l0.1 0.12c-0.132-4.496-3.248-4.548-6.508-4.364l0.128 0.104c-6.04-10.168-16.964-11.512-26.824-14.212-10.196-2.788-17.916 3.136-20.252 14.288-7.308 8.644-9.288 19.624-13.072 29.812-14.068-4.916-25.948-13.38-37.116-22.984z" fill="#237053" /><path d="M43.24 536.828c-0.78 6.248 4.332 7.272 8.272 9.296 3.416 1.768 6.872 4.36 3.352 7.98-8.304 8.536-10.636 20.084-16.312 29.908-23.656-12.448-28.744-25.636-21.56-55.896l6.224-0.56c0.368 0.576 0.808 1.088 1.308 1.532 0.076 0.42 0.32 0.748 0.72 0.964 6.652 0.532 10.64 8.132 17.996 6.776zM424.276 807.784c0.008-11.68 0.208-23.36-0.048-35.036-0.14-6.5 1.492-8.724 7.716-4.876 10.208 6.3 20.548 12.396 30.828 18.584-1.372 7.044-7.804 11.756-8.784 18.988l0.176-0.116c-1.86 0.932-2.104 2.676-2.268 4.464l0.128-0.196c-3.42 2.452-1.392 8.664-6.732 9.796-7.008-3.864-14.012-7.732-21.016-11.608z" fill="#333333" /><path d="M66.228 430.236c0.136 3.168 0.104 6.356 0.444 9.5 0.852 7.904 0.112 14.884-9.048 17.6a1.616 1.616 0 0 0-0.86 0.596c-8.416 13.42-19.064 12.92-30.916 4.976 2.704-8.9 7.96-15.512 16.54-19.54 8.22-3.852 14.868-10.604 23.84-13.132z" fill="#5FFED8" /><path d="M112.848 253.164a224.408 224.408 0 0 1 56.304 25.356c2.696 1.692 7.368 1.352 7.26 6.316-11.976-1.38-21.804-7.748-31.036-14.56-17.744-13.084-30.696-11.148-42.1 7.488-4.972 8.124-9.74 16.376-14.556 24.588-1.264 2.156-2.268 4.564-5.504 3.812 8.612-18.376 18.228-36.188 29.632-53z" fill="#909090" /><path d="M618.456 897.54c1.968-0.34 3.452 0.392 4.28 2.164 8.592 18.512 19.624 36.036 22.856 56.7-2.872-0.496-5.808-0.86-7.78-3.396-1.356-15.824-9.776-29.236-15.152-43.668-1.46-3.916-3.424-7.636-4.204-11.8z" fill="#237053" /><path d="M23.64 470.952c-0.684 15.7 1.496 31.476-1.268 47.124-0.568-15.732-2.768-31.512 1.268-47.124z" fill="#909090" /><path d="M445.292 819.396c5.34-1.132 3.312-7.344 6.732-9.796-0.044 6.456 0.3 13.044-5.912 17.408l-0.82-7.612z" fill="#B6B6B6" /><path d="M23.22 527.56l-6.224 0.56c-0.42-3.492 0.988-5.62 4.556-6.14 1.968 1.432 1.332 3.652 1.668 5.58zM82.776 306.732c0.492 1.116-0.016 1.7-1.068 1.988-0.404-1.08-0.132-1.788 1.068-1.988z" fill="#909090" /><path d="M295.116 541.076c1.736 9.764 10.26 13.168 17.284 17.348 38.184 22.704 76.584 45.068 114.984 67.416 45.192 26.316 91.08 51.408 135.832 78.504 30.428 18.42 61.904 35.128 92.688 52.988 12.66 7.34 26.144 13.428 37.396 23.104 2.264 1.948 6.924 4.404 4.272 6.816-2.848 2.588-4.764 9.7-11.608 5.68-6.692-3.936-13.848-7.084-20.592-10.928-95.42-54.384-190.752-108.912-286.212-163.204-37.552-21.36-74.288-44.156-112.708-63.968-6.932-3.576-3.056-7.72-0.212-11.048 6.448-7.544 15.364-7.684 24.36-7.048l4.516 4.34z" fill="#5FFED8" /><path d="M232.532 386.084c0 9.588 0.432 19.2-0.12 28.756-0.568 9.836-4.876 12.616-13.948 9.004-16.536-6.588-30.752-17.456-46.264-25.976-21.092-11.588-41.632-24.188-62.44-36.312-16.272-9.48-19.384-18.272-11.36-35.136 5.328-11.188 11.244-22.12 17.416-32.872 6.104-10.624 16.196-13.868 27.236-7.788 24.192 13.324 48.296 26.876 71.764 41.416 12.104 7.5 17.848 19.816 17.788 34.4-0.036 8.168-0.004 16.332-0.004 24.504l-0.068 0.004z" fill="#333333" /><path d="M79.132 534.832c34.832-27.564 73.792-14.296 102.54 7.356 18.996 14.312 35.004 31.38 47.376 51.764-4.644 6.704-13.616 7.916-18.408 13.788-4.204 5.156-6.308 2.944-8.752-0.436-8.6-11.908-19.996-20.688-31.584-29.388-22.648-17-45.336-33.652-73.832-40.064-5.776-1.296-12.196 1.368-17.34-3.02z" fill="#FEFEFE" /><path d="M453.988 805.444c0.98-7.232 7.416-11.944 8.784-18.988 6.276-4.384 11.304-10.54 18.792-13.188 0.908 0.508 1.964 1.616 2.696 1.424 13.636-3.404 26.16-0.772 38.892 4.928 7.804 3.492 15.36 10.284 24.488 8.236 6.092-1.38 11.016-1.188 15.976 2.044 5.64 3.676 10.588 2.904 15.096-1.908 21.412 13.932 35.872 34.116 49.368 55.124 3.176 4.952 5.604 10.376 8.384 15.584-10.82 3.256-18.444-1.472-26.108-8.848-21.08-20.296-43.148-39.532-68.9-53.832-16.992-9.448-35.304-14.296-54.928-11.804-7.428 0.948-13.988 3.908-19.716 9.316-4.224 4-6.432 10.28-12.824 11.912z m144.372 18.056c3.1 7.756 7.7 14.336 14.472 19.168-2.688-8.028-6.004-15.532-14.472-19.168zM79.132 534.832c5.148 4.388 11.564 1.724 17.344 3.024 28.496 6.412 51.184 23.064 73.832 40.064 11.588 8.7 22.984 17.48 31.584 29.388 2.44 3.384 4.544 5.592 8.752 0.436 4.792-5.876 13.764-7.084 18.408-13.788l23.228 32.016c-8.332 16.532-25.004 19.752-37.564 7.228-16.548-16.492-32.624-33.488-49.728-49.38-18.792-17.472-39.964-31.184-65.664-36.852-8.504-1.884-17.24-2.512-25.224-0.844-10.4 2.168-16.248-2.984-22.572-8.916 5.74-0.38 11.656 0.3 16.928-2.852 3.376 4.224 7.08 1.128 10.676 0.476z" fill="#B6B6B6" /><path d="M409.668 737.064c-8.536-8.804-19.748-13.556-30.064-19.588-26.836-15.708-53.84-31.104-80.796-46.604-4.568-2.628-8.96-5.908-14.768-4.624 11.032-10.136 14.288-10.396 26.804-3.124 31.788 18.444 63.688 36.696 95.436 55.216 5.34 3.112 11.788 5.372 13.644 12.452-4.04 1.064-7.4 3.252-10.256 6.272zM578.716 787.996c-4.508 4.808-9.456 5.584-15.096 1.908-4.96-3.232-9.884-3.42-15.976-2.044-9.128 2.052-16.684-4.744-24.488-8.236-12.732-5.704-25.256-8.332-38.892-4.928-0.732 0.192-1.792-0.916-2.696-1.424 22.588-16.736 46.196-13.632 69.832-3.032 9.924 4.448 19.316 10.144 27.316 17.756z" fill="#FEFEFE" /><path d="M196.36 436.936c11.132 6.376 20.344 11.524 29.416 16.904 3.864 2.292 6.7 22.144 3.928 25.628-1.92 2.408-3.912 0.804-5.6-0.1-8.116-4.332-16.148-8.82-24.192-13.268-3.304-1.828-3.596-4.952-3.568-8.268 0.056-6.332 0.016-12.664 0.016-20.896z" fill="#333333" /><path d="M180.1 286.28c15.18 4.248 27.608 13.892 41.24 21.156 16.276 8.68 31.972 19.092 51.84 12.144l-0.448 8.552c-22.872 2.544-41.444-6.176-58.66-20.596-7.676-6.424-17.8-9.888-26.644-14.988-2.74-1.58-7.364-1.328-7.328-6.268z" fill="#909090" /><path d="M68.46 534.352c-5.272 3.152-11.192 2.472-16.928 2.852-2.248-0.724-4.496-1.432-6.744-2.148 3.124-2.248 6.1-4.752 9.408-6.696 10.692-6.288 10.732-6.212 14.264 5.992z" fill="#333333" /><path d="M409.668 737.064c2.852-3.02 6.212-5.208 10.256-6.276 6.82 10.048 6.4 11.276-6.16 18.064-2.32-3.596-3.88-7.46-4.096-11.788zM25.248 530.056a1.344 1.344 0 0 1-0.72-0.964c0.228 0.336 0.468 0.66 0.72 0.964z" fill="#909090" /><path d="M150.404 250.732c32.292 14.828 62.668 32.852 91.732 53.132-32.192-14.944-62.708-32.804-91.732-53.132z" fill="#FEFEFE" /><path d="M149.34 682.072c-0.02 17.996-9.42 23.684-22.508 17.016-12.372-6.288-23.228-26.092-21.86-39.868 1.108-11.156 10.684-16.632 20.732-11.272 14.856 7.94 22.26 20.92 23.636 34.124zM556.752 923.66a12.816 12.816 0 0 1-7.644 12.288c-6.712 3.112-12.488 1.424-18.272-3.456-10.312-8.696-16.268-19.604-18.284-32.608-1.012-6.472 0.312-12.884 6.536-16.82 5.824-3.692 11.916-2.548 16.884 1.188 12.076 9.076 20.364 20.624 20.78 39.408z" fill="#B6B6B6" /><path d="M496.704 829.104c2.34-11.152 10.056-17.08 20.252-14.288 9.86 2.7 20.784 4.044 26.824 14.212-11.224-2.856-21.172-11.484-34.116-6.716-4.72 1.74-8.736 4.356-12.96 6.792zM590.552 882.184c3.628-0.136 4.752 2.728 5.768 5.248 6.576 16.168 14.708 31.924 13.86 50.152-2.064-0.796-3.888-2.028-4.116-4.352-1.796-18.056-9.46-34.304-15.512-51.048zM555.388 839.576c6.416-0.688 10.204 1.572 9.692 8.648l-9.692-8.648z" fill="#909090" /><path d="M584.156 871.54c6.128 1.204 6.428 5.92 6.496 10.776-3.992-2.488-5.832-6.28-6.496-10.776z" fill="#909090" /><path d="M609.892 880.572c5.236 0.244 5.752 3.856 5.644 7.912-4.54-0.752-4.976-4.42-5.644-7.912z" fill="#237053" /><path d="M573.5 856.612c5.552 0.348 6.784 3.924 6.488 8.648-3.612-1.788-6.144-4.396-6.488-8.648zM543.652 828.92c3.26-0.184 6.376-0.132 6.508 4.364-3.16 0.02-5.232-1.576-6.508-4.364z" fill="#909090" /><path d="M579.896 865.144c4.548 0.1 4.548 3.244 4.356 6.516-2.888-1.216-4.5-3.276-4.356-6.516z" fill="#909090" /><path d="M603.464 869.976c2.996-0.42 4.336 0.656 3.416 3.776-2.284-0.236-3.428-1.492-3.416-3.776z" fill="#237053" /><path d="M610.896 937.572l3.392 2.088c-1.128-0.7-2.26-1.396-3.392-2.088zM571.36 854.476l2.264 2.252-2.264-2.252zM568.18 852.348c1.576 0.064 2.752 0.704 3.32 2.252l-3.32-2.252zM564.968 848.068c1.6 0.532 2.208 1.74 2.252 3.328-0.748-1.112-1.496-2.22-2.252-3.328zM550.06 833.164c1.616 0.504 2.208 1.724 2.252 3.308l-2.252-3.308z" fill="#909090" /><path d="M451.896 809.792c0.164-1.788 0.408-3.532 2.268-4.464-0.092 1.82-0.252 3.62-2.268 4.464z" fill="#B6B6B6" /><path d="M598.36 823.5c8.468 3.636 11.784 11.14 14.472 19.168-6.772-4.832-11.372-11.412-14.472-19.168z" fill="#FEFEFE" /></svg>